<?xml version="1.0" encoding="UTF-8"?>
<svg width="18px" height="16px" viewBox="0 0 18 16" version="1.1" xmlns="http://www.w3.org/2000/svg" xmlns:xlink="http://www.w3.org/1999/xlink">
    <!-- Generator: Sketch 63.1 (92452) - https://sketch.com -->
    <title>accessories</title>
    <desc>Created with Sketch.</desc>
    <g id="页面-1" stroke="none" stroke-width="1" fill-rule="evenodd">
        <g id="0规范" transform="translate(-646.000000, -644.000000)" fill-rule="nonzero">
            <g id="文字框" transform="translate(599.000000, 632.000000)">
                <g id="输入按钮" transform="translate(14.000000, 11.000000)">
                    <g id="accessories" transform="translate(33.000000, 1.000000)">
                        <path d="M16.8755199,16 L1.12446675,16 C0.504732232,16 0,15.4907688 0,14.8624966 L0,1.13750344 C0,0.509231193 0.504732232,0 1.12446675,0 L5.77779977,0 C6.03549007,0 6.28466168,0.0881785616 6.48485083,0.251308901 L8.95739987,2.27059796 L16.8755199,2.27059796 C17.4952544,2.27059796 18,2.77982915 18,3.40810141 L18,14.8580876 C18.0021163,15.4907688 17.4973841,16 16.8755199,16 Z M16.9148715,14.8624966 L16.9148715,15.4312483 L16.9148715,14.8624966 Z M5.88428337,1.4836043 L1.38854606,1.4836043 L1.38854606,14.6530725 L16.6135702,14.6530725 L16.6156999,3.68145495 L8.96165921,3.68145495 C8.71461728,3.68145495 8.47183468,3.59548085 8.27590487,3.43675944 C8.27590487,3.43455497 5.88428337,1.4836043 5.88428337,1.4836043 Z M6.01632302,6.1791127 L14.9822416,6.1791127 C14.9928899,6.1791127 14.9992856,6.1857261 14.9992856,6.19454395 L14.9992856,7.57233398 C14.9992856,7.58115183 14.9928899,7.58776522 14.9822416,7.58776522 L6.01632302,7.58776522 C6.00567466,7.58776522 5.99928565,7.58115183 5.99928565,7.57233398 L5.99928565,6.19454395 C5.99928565,6.1857261 6.00780433,6.1791127 6.01632302,6.1791127 Z" id="形状"></path>
                    </g>
                </g>
            </g>
        </g>
    </g>
</svg>