<?xml version="1.0" standalone="no"?><!DOCTYPE svg PUBLIC "-//W3C//DTD SVG 1.1//EN" "http://www.w3.org/Graphics/SVG/1.1/DTD/svg11.dtd"><svg class="icon" width="200px" height="200.00px" viewBox="0 0 1024 1024" version="1.1" xmlns="http://www.w3.org/2000/svg"><path fill="#017ECA" d="M0 512C0 229.23264 229.1712 0 512 0c282.76736 0 512 229.1712 512 512 0 282.76736-229.1712 512-512 512-282.76736 0-512-229.1712-512-512z m731.7504-34.99008l-196.28032-0.2048V292.0448c0-8.74496-15.32928-15.5648-23.47008-15.5648-8.1408 0-23.84896 7.03488-23.84896 15.7696v184.76032h-195.8912c-8.74496 0-15.77984 12.12416-15.77984 20.2752 0 8.1408 7.03488 26.84928 15.7696 26.84928h195.90144v207.60576C488.15104 740.48512 503.8592 747.52 512 747.52c8.1408 0 23.47008-7.24992 23.47008-15.99488V523.91936l196.27008 0.2048c8.74496 0 15.77984-18.69824 15.77984-26.83904 0-8.15104-7.03488-20.2752-15.7696-20.2752z" /></svg>