<?xml version="1.0" standalone="no"?><!DOCTYPE svg PUBLIC "-//W3C//DTD SVG 1.1//EN" "http://www.w3.org/Graphics/SVG/1.1/DTD/svg11.dtd"><svg class="icon" width="200px" height="200.00px" viewBox="0 0 1024 1024" version="1.1" xmlns="http://www.w3.org/2000/svg"><path fill="#1296db" d="M0 512c0 282.782 229.188 512 512 512 282.75 0 512-229.218 512-512S794.75 0 512 0C229.188 0 0 229.218 0 512zM944 512c0 238.594-193.438 432-432 432-238.624 0-432-193.406-432-432S273.376 80 512 80C750.562 80 944 273.406 944 512zM297.376 413.376c-12.5 12.5-12.5 32.75 0 45.25l192 192c12.5 12.5 32.75 12.5 45.25 0l192-192C732.876 452.376 736 444.188 736 436s-3.124-16.376-9.376-22.624c-12.5-12.5-32.75-12.5-45.25 0L512 582.75l-169.376-169.376C330.124 400.876 309.876 400.876 297.376 413.376z" /></svg>