<?xml version="1.0" encoding="UTF-8"?>
<svg width="19px" height="19px" viewBox="0 0 19 19" version="1.1" xmlns="http://www.w3.org/2000/svg" xmlns:xlink="http://www.w3.org/1999/xlink">
    <!-- Generator: Sketch 63.1 (92452) - https://sketch.com -->
    <title>biaoqing</title>
    <desc>Created with Sketch.</desc>
    <g id="页面-1" stroke="none" stroke-width="1" fill-rule="evenodd">
        <g id="0规范" transform="translate(-613.000000, -643.000000)" fill-rule="nonzero">
            <g id="文字框" transform="translate(599.000000, 632.000000)">
                <g id="输入按钮" transform="translate(14.000000, 11.000000)">
                    <g id="biaoqing">
                        <path d="M9.49956798,1.67647058 C6.70449011,1.67647058 4.12173162,3.16762681 2.72419267,5.58823526 C1.32665372,8.0088437 1.32665372,10.9911563 2.72419267,13.4117647 C4.12173162,15.8323732 6.70449011,17.3235294 9.49956798,17.3235294 C13.820384,17.3235294 17.3230974,13.820816 17.3230974,9.5 C17.3230974,5.17918401 13.820384,1.67647058 9.49956798,1.67647058 L9.49956798,1.67647058 Z M9.49956798,0 C12.893694,0 16.0300618,1.81050167 17.7271693,4.74987528 C19.4242769,7.6892489 19.4242769,11.3107511 17.7271693,14.2501247 C16.0300618,17.1894983 12.893694,19 9.49956798,19 C4.25303158,18.9997614 0,14.7465364 0,9.5 C0,4.25346358 4.25303158,0.00023858852 9.49956798,0 Z M5.18880329,6.78523529 C5.18880329,6.03588234 5.79627387,5.42841176 6.54562682,5.42841176 C7.29497976,5.42841176 7.90245034,6.03588234 7.90245034,6.78523529 C7.90245034,7.53458821 7.29497974,8.14205877 6.54562682,8.14205877 C5.79627389,8.14205877 5.18880329,7.53458821 5.18880329,6.78523529 L5.18880329,6.78523529 Z M11.095568,6.78523529 C11.095568,6.03557371 11.7032888,5.42785293 12.4529503,5.42785293 C13.2026119,5.42785293 13.8103327,6.03557371 13.8103327,6.78523529 C13.8103327,7.53489686 13.2026119,8.14261764 12.4529503,8.14261764 C11.7032888,8.14261764 11.095568,7.53489686 11.095568,6.78523529 Z M4.86580329,10.0588235 L14.2026268,10.0588235 C14.2026268,12.1968823 12.2366856,14.7641176 9.48056799,14.7641176 C6.72556799,14.7641176 4.86580329,12.1968823 4.86580329,10.0588235 Z" id="形状"></path>
                    </g>
                </g>
            </g>
        </g>
    </g>
</svg>