<?xml version="1.0" standalone="no"?><!DOCTYPE svg PUBLIC "-//W3C//DTD SVG 1.1//EN" "http://www.w3.org/Graphics/SVG/1.1/DTD/svg11.dtd"><svg class="icon" width="200px" height="200.00px" viewBox="0 0 1024 1024" version="1.1" xmlns="http://www.w3.org/2000/svg"><path d="M831.705416 711.306278c0 36.33044-11.053754 65.011666-33.151028 86.058005-22.102391 21.039175-51.472302 31.561833-88.10257 31.561833L313.544089 828.926116c-36.635385 0-66.005296-10.522658-88.101547-31.561833-22.103414-21.046339-33.152051-49.726541-33.152051-86.058005 0-16.043395 0.524956-31.711236 1.589195-47.0025 1.057075-15.284101 3.178389-31.79003 6.357801-49.500391 3.178389-17.711384 7.187703-34.131355 12.034081-49.273217 4.839215-15.135722 11.352559-29.894867 19.527752-44.277436 8.17417-14.375405 17.554818-26.637684 28.15627-36.783765 10.594289-10.139941 23.536043-18.23634 38.82833-24.296359 15.284101-6.052856 32.16456-9.082866 50.635237-9.082866 2.725064 0 9.082866 3.257184 19.073404 9.763364 9.990538 6.514367 21.266349 13.779841 33.83255 21.798469 12.56006 8.025791 28.9084 15.291265 49.046043 21.798469 20.13048 6.514367 40.339754 9.764388 60.625776 9.764388 20.279882 0 40.489156-3.25002 60.627822-9.764388 20.129456-6.507204 36.478819-13.772678 49.046043-21.798469 12.559037-8.018627 23.840988-15.284101 33.83255-21.798469 9.990538-6.507204 16.34834-9.763364 19.074428-9.763364 18.463514 0 35.342949 3.03001 50.634214 9.082866 15.285125 6.060019 28.227901 14.156418 38.82833 24.296359 10.594289 10.147104 19.9821 22.408359 28.15627 36.783765 8.17417 14.383592 14.681374 29.142737 19.526729 44.277436 4.840238 15.141862 8.855692 31.561833 12.035104 49.273217 3.179412 17.71036 5.294586 34.216289 6.357801 49.500391C831.17432 679.596066 831.705416 695.262884 831.705416 711.306278zM635.296117 182.471868c34.059724 34.059724 51.090609 75.15877 51.090609 123.296117 0 48.13837-17.029862 89.236394-51.090609 123.296117-34.059724 34.059724-75.15877 51.089585-123.297141 51.089585-48.137347 0-89.23537-17.029862-123.296117-51.089585-34.059724-34.059724-51.089585-75.157747-51.089585-123.296117 0-48.137347 17.029862-89.236394 51.089585-123.296117 34.059724-34.059724 75.15877-51.089585 123.296117-51.089585C560.136324 131.382283 601.23537 148.412145 635.296117 182.471868z" /></svg>