<?xml version="1.0" standalone="no"?><!DOCTYPE svg PUBLIC "-//W3C//DTD SVG 1.1//EN" "http://www.w3.org/Graphics/SVG/1.1/DTD/svg11.dtd"><svg t="1535528107089" class="icon" style="" viewBox="0 0 1024 1024" version="1.1" xmlns="http://www.w3.org/2000/svg" p-id="1909" xmlns:xlink="http://www.w3.org/1999/xlink" width="22" height="22"><defs><style type="text/css"></style></defs><path d="M552.71633 504.95556L955.331038 102.340853c10.79895-10.791787 10.79895-28.300556 0-39.092343-10.79895-10.79895-28.293393-10.79895-39.092344 0L513.622964 465.863217 111.008256 63.247486c-10.79895-10.79895-28.293393-10.79895-39.092343 0-10.79895 10.791787-10.79895 28.300556 0 39.092344l402.614707 402.614707L71.915913 907.570267c-10.79895 10.79281-10.79895 28.300556 0 39.092344a27.557636 27.557636 0 0 0 19.546172 8.099468 27.555589 27.555589 0 0 0 19.546171-8.099468l402.614708-402.614707 402.614707 402.614707a27.557636 27.557636 0 0 0 19.546172 8.099468 27.555589 27.555589 0 0 0 19.546171-8.099468c10.79895-10.79281 10.79895-28.300556 0-39.092344L552.71633 504.95556z" p-id="1910"></path></svg>