<?xml version="1.0" standalone="no"?><!DOCTYPE svg PUBLIC "-//W3C//DTD SVG 1.1//EN" "http://www.w3.org/Graphics/SVG/1.1/DTD/svg11.dtd"><svg t="1536743333006" class="icon" style="" viewBox="0 0 1024 1024" version="1.1" xmlns="http://www.w3.org/2000/svg" p-id="7914" xmlns:xlink="http://www.w3.org/1999/xlink" width="14" height="14"><defs><style type="text/css"></style></defs><path d="M910.03871 8.258065H112.309677C90.83871 8.258065 72.670968 26.425806 72.670968 47.896774v934.812903c0 23.122581 24.774194 39.63871 46.245161 29.729033L512 842.322581l393.083871 170.116129c21.470968 9.909677 46.245161-6.606452 46.245161-29.729033V47.896774C949.677419 26.425806 931.509677 8.258065 910.03871 8.258065m-104.051613 378.219354l-122.219355 133.780646 23.122581 180.025806c1.651613 16.516129-14.864516 29.729032-29.729033 21.470968l-165.16129-79.27742-163.509677 77.625807c-14.864516 6.606452-31.380645-4.954839-29.729033-21.470968l23.122581-180.025806-122.219355-132.129033c-11.56129-11.56129-4.954839-31.380645 11.56129-34.683871l176.722581-34.683871L495.483871 160.206452c8.258065-14.864516 29.729032-14.864516 36.335484 0l87.535484 158.554838 176.72258 33.032258c13.212903 1.651613 19.819355 21.470968 9.909678 34.683871" p-id="7915"></path></svg>