<?xml version="1.0" standalone="no"?><!DOCTYPE svg PUBLIC "-//W3C//DTD SVG 1.1//EN" "http://www.w3.org/Graphics/SVG/1.1/DTD/svg11.dtd"><svg class="icon" width="200px" height="200.00px" viewBox="0 0 1024 1024" version="1.1" xmlns="http://www.w3.org/2000/svg"><path d="M903.873 0H120.127A120.127 120.127 0 0 0 0 120.127v783.746A120.127 120.127 0 0 0 120.127 1024h783.746A120.127 120.127 0 0 0 1024 903.873V120.127A120.127 120.127 0 0 0 903.873 0zM353.708 278.628l135.977-135.977a31.283 31.283 0 0 1 44.213 0l135.977 135.977a31.283 31.283 0 1 1-44.213 44.214L542.24 239.42v478.006a31.283 31.283 0 0 1-62.566 0V240.254l-83.421 83.422a31.283 31.283 0 0 1-42.545-45.048zM871.756 803.35a87.176 87.176 0 0 1-87.176 87.175H239.42a87.176 87.176 0 0 1-87.176-87.175V645.266a31.283 31.283 0 0 1 62.567 0V803.35a24.61 24.61 0 0 0 24.609 24.61h545.16a24.61 24.61 0 0 0 24.61-24.61V641.095a31.283 31.283 0 0 1 62.566 0z" /></svg>