<?xml version="1.0" standalone="no"?><!DOCTYPE svg PUBLIC "-//W3C//DTD SVG 1.1//EN" "http://www.w3.org/Graphics/SVG/1.1/DTD/svg11.dtd"><svg t="1535607102320" class="icon" style="" viewBox="0 0 1024 1024" version="1.1" xmlns="http://www.w3.org/2000/svg" p-id="5872" xmlns:xlink="http://www.w3.org/1999/xlink" width="14" height="14"><defs><style type="text/css"></style></defs><path d="M864.60032 149.36832 673.7408 149.36832 673.7408 111.19744c0-42.16064-34.1824-76.34304-76.34432-76.34304L406.53952 34.8544c-42.16064 0-76.34432 34.18368-76.34432 76.34304l0 38.17216L139.33696 149.3696l0 38.17216 39.328 0 38.208 725.26208c0 42.16192 34.18368 76.3456 76.34432 76.3456l419.88864 0c42.16064 0 76.34432-34.1824 76.34432-76.3456l37.53728-725.26208 37.6128 0L864.60032 149.36832zM368.36736 111.19744c0-21.06112 17.14688-38.17088 38.17216-38.17088l190.85824 0c21.06112 0 38.17216 17.10976 38.17216 38.17088l0 38.17216L368.36736 149.3696 368.36736 111.19744zM751.35232 910.82752l-0.07552 0.97024 0 1.0048c0 21.02528-17.10976 38.1696-38.17088 38.1696L293.21728 950.97216c-21.02528 0-38.17216-17.1456-38.17216-38.1696l0-1.0048-0.0384-1.00736-38.13376-723.24992 571.904 0L751.35232 910.82752z" p-id="5873"></path><path d="M482.88384 263.88352l38.1696 0 0 610.74688-38.1696 0 0-610.74688Z" p-id="5874"></path><path d="M407.39584 873.40032 368.32896 263.8464 330.2336 266.26944 369.2992 875.82464Z" p-id="5875"></path><path d="M674.00192 265.07648 635.90528 262.69184 597.39776 873.43744 635.4944 875.82464Z" p-id="5876"></path></svg>