<?xml version="1.0" standalone="no"?><!DOCTYPE svg PUBLIC "-//W3C//DTD SVG 1.1//EN" "http://www.w3.org/Graphics/SVG/1.1/DTD/svg11.dtd"><svg class="icon" width="48px" height="48.00px" viewBox="0 0 1024 1024" version="1.1" xmlns="http://www.w3.org/2000/svg"><path d="M633.204364 846.941091c50.455273 0 90.856727 36.305455 90.856727 81.175273v14.708363c0 44.869818-40.96 81.175273-90.856727 81.175273H90.856727C40.401455 1024 0 987.694545 0 942.824727V928.116364c0-44.869818 40.96-81.175273 90.856727-81.175273z m-498.967273 43.752727a44.404364 44.404364 0 0 0-43.380364 44.776727c0 24.576 19.549091 44.869818 43.380364 44.869819a44.404364 44.404364 0 0 0 43.380364-44.869819 44.404364 44.404364 0 0 0-43.380364-44.869818z m152.017454 0a44.404364 44.404364 0 0 0-43.287272 44.776727c0 24.576 19.549091 44.869818 43.287272 44.869819a44.404364 44.404364 0 0 0 43.380364-44.869819 44.404364 44.404364 0 0 0-43.380364-44.869818z m152.110546 0a44.404364 44.404364 0 0 0-43.380364 44.776727c0 24.576 19.549091 44.869818 43.380364 44.869819a44.404364 44.404364 0 0 0 43.380364-44.869819 44.404364 44.404364 0 0 0-43.380364-44.869818z m152.017454 0a44.404364 44.404364 0 0 0-43.380363 44.776727c0 24.576 19.549091 44.869818 43.380363 44.869819a44.404364 44.404364 0 0 0 43.380364-44.869819 44.404364 44.404364 0 0 0-43.380364-44.869818zM589.265455 799.650909v32.581818H124.741818v-32.581818h464.523637z m282.71709-290.071273c12.474182-30.72 44.032-28.858182 73.076364-13.591272 20.852364 11.170909 55.296 29.509818 65.349818 56.599272 30.906182 82.944 5.306182 171.473455-35.653818 220.066909-55.202909 54.644364-182.923636 57.157818-251.810909-19.083636 7.168-8.005818 13.032727-16.011636 19.549091-24.017454a18.059636 18.059636 0 0 1-4.096-11.077819c0-8.564364 7.074909-15.918545 15.453091-15.918545a13.963636 13.963636 0 0 1 8.378182 3.072l10.612363-14.149818a15.080727 15.080727 0 0 1-7.168-12.939637c0-8.564364 7.168-15.918545 15.453091-15.918545 3.630545 0 6.516364 1.210182 8.936727 3.072 2.978909-4.375273 5.957818-8.657455 8.936728-13.591273a15.918545 15.918545 0 0 1-7.726546-12.288c-0.651636-9.216 5.957818-17.221818 14.242909-17.780363a19.549091 19.549091 0 0 1 10.053819 3.072c2.420364-4.282182 4.747636-9.309091 7.168-13.498182a15.36 15.36 0 0 1-7.726546-13.591273c0-8.564364 7.074909-15.918545 15.453091-15.918545 2.327273 0 4.654545 0.558545 7.074909 1.861818 2.420364-4.375273 4.747636-8.657455 7.168-13.591273a16.197818 16.197818 0 0 1-5.957818-12.288c0-8.564364 7.168-15.918545 15.453091-15.918545 1.210182 0 1.861818 0.558545 2.978909 0.558545 4.747636-11.077818 10.053818-21.504 14.894545-33.140364z m-321.908363-157.323636c20.200727 0 39.191273 12.846545 46.359273 33.140364l82.571636 229.282909c1.768727 5.585455 2.978909 11.636364 2.978909 17.780363v15.36l0.558545 50.455273c0 46.638545-36.770909 84.712727-81.92 84.712727H115.805091c-45.149091 0-81.92-38.074182-81.92-84.712727 0-46.731636 36.770909-84.898909 81.92-84.898909h182.365091V403.828364c0-28.858182 22.528-51.665455 49.896727-51.665455z m-0.558546 50.920727H346.856727v209.640728H625.570909L549.422545 403.083636z m-10.146909 19.735273l64.232728 176.965818H368.174545l171.008-176.965818z m376.645818 83.595636a27.927273 27.927273 0 0 0-27.927272 28.206546c0 16.011636 12.474182 28.858182 27.927272 28.858182 14.894545 0 27.275636-12.846545 27.275637-28.858182a28.113455 28.113455 0 0 0-27.275637-28.206546z m54.644364-367.616l-16.756364 350.952728c-2.885818-1.861818-5.864727-3.723636-8.843636-4.933819-20.759273-10.984727-42.821818-14.708364-58.181818-4.840727l16.663273-340.526545a80.430545 80.430545 0 0 0 32.023272 8.564363c13.032727 0 24.389818-3.723636 35.095273-9.216zM863.604364 51.013818a79.965091 79.965091 0 0 0 20.200727 74.379637L551.191273 235.985455 512 338.013091H359.982545L459.124364 162.909091l3.537454-6.144a50.920727 50.920727 0 0 1 32.116364-24.017455zM937.890909 0c36.212364 0 65.349818 30.161455 65.349818 67.584a66.280727 66.280727 0 0 1-65.349818 67.677091 66.280727 66.280727 0 0 1-65.349818-67.677091c0-37.422545 29.044364-67.584 65.349818-67.584z m0 41.797818c-13.032727 0-24.389818 11.636364-24.389818 25.786182 0 14.149818 10.705455 25.879273 24.389818 25.879273 13.591273 0 24.296727-11.729455 24.948364-25.879273a25.506909 25.506909 0 0 0-24.948364-25.786182z" fill="#FB8E3C" /></svg>