<?xml version="1.0" encoding="utf-8"?>
<!-- Generator: Adobe Illustrator 23.0.0, SVG Export Plug-In . SVG Version: 6.00 Build 0)  -->
<svg version="1.1" id="图层_1" xmlns="http://www.w3.org/2000/svg" xmlns:xlink="http://www.w3.org/1999/xlink" x="0px" y="0px"
	 viewBox="0 0 48 48" style="enable-background:new 0 0 48 48;" xml:space="preserve">
<style type="text/css">
	.st0{fill:#AF3E23;}
</style>
<path class="st0" d="M45.4,47.4H3.1v-3.9h42.3V47.4z M24.3,0.6L0.5,17.5h4.3L24.3,3.8l19.5,13.7H48L24.3,0.6L24.3,0.6z M26.5,36.6
	V20.5c0.8-0.3,1.3-0.9,1.7-1.7h-7.9c0.3,0.8,0.9,1.4,1.7,1.7v16.1c-0.8,0.3-1.4,0.9-1.7,1.7h7.9C27.9,37.6,27.3,36.9,26.5,36.6
	L26.5,36.6z M14.8,36.6V20.5c0.7-0.3,1.3-0.9,1.7-1.7H8.6c0.3,0.8,0.9,1.4,1.7,1.7v16.1c-0.8,0.3-1.4,0.9-1.7,1.7h7.9
	C16.2,37.6,15.6,36.9,14.8,36.6L14.8,36.6z M38.2,36.6V20.5c0.8-0.3,1.4-0.9,1.7-1.7H32c0.3,0.8,0.9,1.4,1.7,1.7v16.1
	c-0.8,0.3-1.4,0.9-1.7,1.7h7.9C39.6,37.6,39,36.9,38.2,36.6L38.2,36.6z M40.5,17.5L24.3,5.8L8,17.5H40.5z M42.2,39.6H6.4v2.6h35.8
	V39.6z"/>
</svg>
