<?xml version="1.0" standalone="no"?><!DOCTYPE svg PUBLIC "-//W3C//DTD SVG 1.1//EN" "http://www.w3.org/Graphics/SVG/1.1/DTD/svg11.dtd"><svg class="icon" width="48px" height="48.00px" viewBox="0 0 1024 1024" version="1.1" xmlns="http://www.w3.org/2000/svg"><path d="M643.659599 610.754165l-0.590448-0.579191L537.568329 272.563746 359.551936 272.563746 211.202213 747.290841l237.357919 207.700459 237.358943-207.700459L643.346467 611.063203 643.659599 610.754165 643.659599 610.754165zM418.882206 331.915505l59.335387 0 6.205329 20.167319L380.789633 455.716112 418.882206 331.915505 418.882206 331.915505zM343.487052 576.942081l160.686702-160.686702 17.087167 55.526641-210.04997 210.054063L343.487052 576.942081 343.487052 576.942081zM332.313571 749.737566l209.886241-209.893404 17.612123 57.226353L368.939747 786.368858 332.313571 749.737566 332.313571 749.737566zM448.560132 865.97901l-31.003108-30.999015 165.084872-163.716712 14.268982 46.360887L448.560132 865.97901 448.560132 865.97901zM537.568329 242.896052l59.341526-178.022533L300.194036 64.87352l59.35176 178.022533L537.568329 242.896052 537.568329 242.896052zM656.245242 539.601638l148.360979 89.013313-59.35176-207.700459-148.344606-88.991824L656.245242 539.601638 656.245242 539.601638zM656.245242 539.601638" fill="#1296db" /></svg>