<?xml version="1.0" encoding="utf-8"?>
<!-- Generator: Adobe Illustrator 23.0.0, SVG Export Plug-In . SVG Version: 6.00 Build 0)  -->
<svg version="1.1" id="图层_1" xmlns="http://www.w3.org/2000/svg" xmlns:xlink="http://www.w3.org/1999/xlink" x="0px" y="0px"
	 viewBox="0 0 48 48" style="enable-background:new 0 0 48 48;" xml:space="preserve">
<style type="text/css">
	.st0{fill:#EA5319;}
</style>
<path class="st0" d="M41,39.3v1.3c0,2.6-6.8,4.8-6.8,4.8L31.4,45c0,0-4.5-0.6-7.4-0.6c-2.8,0-7.4,0.6-7.4,0.6l-2.8,0.4
	c0,0-6.8-2.2-6.8-4.8v-1.3c0-2.4,3.1-4.8,6.8-6.7C14,32.5,16.2,45,16.2,45l1,0c0,0-1.9-12.9-1.7-13c1-0.5,1.7-0.9,2.7-1.3
	c0.4-0.1,2.1-1.1,1.2-3.7c-2.3-2.3-3.9-4.6-3.9-9.8h17.1c0,5.1-1.6,7.4-3.9,9.7h0c-1,2.9,0.6,3.6,0.8,3.7c1,0.3,2,0.8,3,1.3
	c0.2,0.1-1.7,13-1.7,13l1,0c0,0,2.1-12.5,2.3-12.4C37.9,34.4,41,36.8,41,39.3L41,39.3z M33.7,11.8c0-5.9-8-8.9-8-8.9
	c-1.1-0.5-2.3-0.4-3.4,0c0,0-8,2.6-8,8.9c0,0.9-1.7,0.7-2.3,3.7h24C35,12.5,33.7,12.8,33.7,11.8z"/>
</svg>
