<?xml version="1.0" standalone="no"?><!DOCTYPE svg PUBLIC "-//W3C//DTD SVG 1.1//EN" "http://www.w3.org/Graphics/SVG/1.1/DTD/svg11.dtd"><svg class="icon" width="48px" height="48.00px" viewBox="0 0 1024 1024" version="1.1" xmlns="http://www.w3.org/2000/svg"><path d="M337.108061 200.535734l-4.898143-2.016882A112.657288 112.657288 0 0 0 296.770413 193.044457a101.132245 101.132245 0 0 0-103.149128 74.048396c-7.779403 36.303883-74.336522 358.428813-106.60664 522.660664a277.177265 277.177265 0 0 1 178.92628-72.031514c8.931908-63.099606 48.405177-351.513787 71.167136-517.186269zM257.009017 761.80529h-7.491277c-95.369724 0-177.48565 57.625211-182.960045 131.097355s67.421497 131.097355 162.791221 131.097355c78.370287 0 147.52054-39.47327 172.875633-93.640968-88.166573-6.050647-138.876759-66.557119-145.215532-168.553742zM936.698382 789.753517c-33.422622-164.231851-98.539111-486.068655-106.318515-522.660664a101.132245 101.132245 0 0 0-103.149128-74.048396 112.657288 112.657288 0 0 0-35.439504 5.474395l-4.898143 2.016882c22.761958 165.672482 62.235228 454.086663 71.167135 517.186269a277.177265 277.177265 0 0 1 178.638155 72.031514zM957.155331 892.902645c-5.474395-72.31964-86.437817-131.097355-182.960045-131.097355h-7.491277c-6.050647 101.996624-57.625211 161.062465-144.063028 168.553742 25.355093 54.167698 94.505346 93.640968 172.875634 93.640968 94.21722 0 167.401238-58.777715 161.638716-131.097355zM508.83119 541.676984a300.515476 300.515476 0 0 1 185.265053 59.930219c-24.202589-177.773776-65.116488-480.59426-70.014631-512.864378a109.487901 109.487901 0 0 0-115.250422-86.437817 109.199775 109.199775 0 0 0-115.250422 86.437817c-5.474395 40.625774-46.388295 339.124367-70.590884 514.881261a299.939223 299.939223 0 0 1 185.841306-61.947102z" fill="#dba818" /><path d="M297.634791 739.043331a211.196398 160.486213 0 1 0 422.392797 0 211.196398 160.486213 0 1 0-422.392797 0Z" fill="#dba818" /></svg>