<?xml version="1.0" standalone="no"?><!DOCTYPE svg PUBLIC "-//W3C//DTD SVG 1.1//EN" "http://www.w3.org/Graphics/SVG/1.1/DTD/svg11.dtd"><svg class="icon" width="48px" height="48.00px" viewBox="0 0 1024 1024" version="1.1" xmlns="http://www.w3.org/2000/svg"><path d="M1013.338 200.74L533.34 28.1c0-10.79-10.672-10.79-21.34-10.79h-31.996c-10.672 0-21.34 10.79-21.34 21.578v161.85h-192V136c0-21.584-10.668-32.37-31.996-32.37H32c-21.332 0.002-32 10.788-32 32.372v248.172c0 10.786 10.668 21.578 32.002 21.578h202.668c21.328 0 31.996-10.792 31.996-21.578v-53.952h160v496.348h-127.998c-10.668 0-21.336 10.786-21.336 21.578v140.27C277.332 1010 288 1010 298.668 1010H672c10.666 0 21.336 0 21.336-21.582v-140.27c0-10.792-10.672-21.578-21.336-21.578h-106.664V330.222H864v129.48h-53.332c-10.666 0-21.336 10.786-21.336 32.37v86.322c0 10.786 10.672 21.578 21.336 21.578h149.336c21.33 0 31.996-10.792 31.996-21.578v-86.322c0-21.584-10.666-32.37-31.996-32.37h-53.33v-129.48h95.994c10.672 0 21.334-10.792 21.334-21.584V222.32c-0.002-10.788-0.002-21.58-10.664-21.58zM544.002 92.84l298.664 107.9H544.002V92.84z" fill="#2E75B6" /></svg>