<?xml version="1.0" encoding="utf-8"?>
<!-- Generator: Adobe Illustrator 23.0.0, SVG Export Plug-In . SVG Version: 6.00 Build 0)  -->
<svg version="1.1" id="图层_1" xmlns="http://www.w3.org/2000/svg" xmlns:xlink="http://www.w3.org/1999/xlink" x="0px" y="0px"
	 viewBox="0 0 48 48" style="enable-background:new 0 0 48 48;" xml:space="preserve">
<style type="text/css">
	.st0{fill:#747474;}
</style>
<path class="st0" d="M45.4,39.3L33,21.6c0,0,0-0.3-0.3-0.3c-0.8-0.3-1.5-0.3-2-0.3s-1,0.5-1,1c-0.3,0.5,0,1.2,0.3,1.5
	c0.3,0.3,0.5,0.8,0.8,1l0.3,0.5v0.5c-0.3,0-0.3,0.3-0.5,0.5c0,0.3-0.3,0.5-0.3,0.8c0,1-0.3,2-0.5,2.7c0,0.5-0.3,0.8-0.3,1.2
	s-0.5,0.8-1,0.8c-0.3,0-0.3,0-0.5,0.3c0,0-0.3,0.3,0,0.5c0,0.5,0,1.2-0.3,1.7s-0.5,1.2-0.8,1.7c-0.3,0.5-0.3,1-0.5,1.7
	c0,0.3,0,0.5,0.3,0.8l0.8,0.8c0.3,0.3,0.5,0.5,0.5,0.8c0.3,0.3,0,0.5-0.3,0.5H23l-8.4-0.2L3.3,39.1H3l-0.8,0.7C2,40.3,2,40.6,2.3,41
	c0.3,0.5,0.8,0.5,1,0.8h41.6c0.5,0,0.8-0.3,1-0.5v-0.5C45.9,40.1,45.6,39.6,45.4,39.3z M4,37.6c0.8,0.3,1.7-0.3,2-0.8
	c0.3-0.5,0.5-0.8,0.8-1.2c1-2.4,2-5,3.5-7.1c0.3-0.5,0.8-1,1.2-1.5c0-0.3,0.3-0.3,0.5-0.3c0.3,0,0.5,0,0.5,0.3
	c0.3,0.3,0.5,0.5,0.5,0.8c0.3,0.3,0.3,0.5,0.3,0.8v7.9c0,0.3,0,0.8,0.3,1c0.3,0.3,0.5,0.5,0.8,0.5h2.3c0.3,0,0.5,0,0.8-0.3
	c0.8-0.3,1-0.8,1.2-1.5v-1.7c0-2.4,0-5-0.3-7.4v-0.3l-1-2.3v-0.3l6.9,4.7l0.3,0.3l0.8,1.5c0,0.3,0.3,0.3,0.5,0.5
	c0.3,0,0.5,0,0.8-0.3c1-0.8,1.7-2,2-3.2V27l-0.5-0.5c-0.3,0-0.8-0.3-1.2-0.3c-1.2,0-2.4-0.8-3.2-2c-0.3-0.5-0.8-1-1-1.5
	c-0.8-1-1.5-2-1.5-3.2c0-0.5,0-1.2-0.3-1.7c0-1.2-0.5-2.4-1.5-3.5c0.5,0,0.8,0,1.2-0.3c2.3-0.5,3.5-2.7,3-5c-0.5-2-2.4-3.2-4.4-3
	c-2.3,0.8-3.7,2.7-3.5,4.7c0,0.8,0.5,1.5,0.8,2.3c-1.7-0.5-3.9-0.5-5.6,0.3c-1.8,0.6-3.5,1.3-5,2.5l-0.8,0.7c0,0-0.3,0.3,0,0.8
	c0,0.2,0.3,0.5,0.5,0.5l0.5,0.5l2,0.8c0.3,0.3,0.5,0.3,1,0.5c0.3,0,0.3,0.3,0.3,0.5v1.2c-0.3,0.8-0.8,1.7-1.2,2.3
	c-1.3,2.3-2.3,4.4-3.2,6.6c-0.8,2-1.2,3.9-1.5,5.9C2.7,36.9,3.3,37.6,4,37.6z M17.3,21.3l0.5-2.4c0.3,1.2,0.5,2.7,1.2,3.7L17.3,21.3
	C17.3,21.6,17.3,21.3,17.3,21.3z M8.7,16.7l3.2-0.5l-1.2,2C10.6,18.2,8.7,16.7,8.7,16.7z"/>
</svg>
