<?xml version="1.0" standalone="no"?><!DOCTYPE svg PUBLIC "-//W3C//DTD SVG 1.1//EN" "http://www.w3.org/Graphics/SVG/1.1/DTD/svg11.dtd"><svg class="icon" width="48px" height="48.00px" viewBox="0 0 1024 1024" version="1.1" xmlns="http://www.w3.org/2000/svg"><path d="M576.64 301.44l-8.96-71.68-81.92-38.4-61.44-28.16-294.368 125.44-10.24 604.16 343.04 5.12 2.56-670.72 64 28.16 3.424 176.224 61.024-24.736-17.088-105.376zM327.68 271.552l40.96 0 0 97.088-40.96 0 0-97.088zM246.624 305.28l40.96 0 0 65.056-40.96 0 0-65.056zM204.8 614.4l-40.96 0 0-41.28 40.96 0 0 41.28zM204.8 492.8l-40.96 0 0-41.28 40.96 0 0 41.28zM204.8 368.64l-40.96 0 0-41.28 40.96 0 0 41.28zM286.72 615.264l-40.96 0 0-62.944 40.96 0 0 62.944zM288.416 491.52l-40.96 0 0-67.616 40.96 0 0 67.616zM367.776 616.096l-40.96 0 0-78.304 40.96 0 0 78.304zM369.504 492.352l-40.96 0 0-83.424 40.96 0 0 83.424z" fill="#2B85E4" /><path d="M903.04 895.36l-2.56-263.68-40.96-7.68-17.92-199.68-102.4-76.8-243.2 97.28-5.984 456.544 246.624 0.864 0-495.808 71.68 43.52 5.12 204.8 30.72 25.6-2.56 220.16 61.44-5.12zM565.568 713.376l-44.8 0 0-44.8 44.8 0 0 44.8zM566.4 637.44l-44.8 0 0-44.8 44.8 0 0 44.8zM567.68 552.32l-44.8 0 0-44.8 44.8 0 0 44.8zM634.688 715.104l-44.8 0 0-44.8 44.8 0 0 44.8zM635.52 639.136l-44.8 0 0-44.8 44.8 0 0 44.8zM636.8 554.016l-44.8 0 0-44.8 44.8 0 0 44.8zM708.928 715.104l-44.8 0 0-44.8 44.8 0 0 44.8zM709.76 639.136l-44.8 0 0-44.8 44.8 0 0 44.8zM711.04 554.016l-44.8 0 0-44.8 44.8 0 0 44.8z" fill="#2B85E4" /></svg>