<?xml version="1.0" standalone="no"?><!DOCTYPE svg PUBLIC "-//W3C//DTD SVG 1.1//EN" "http://www.w3.org/Graphics/SVG/1.1/DTD/svg11.dtd"><svg class="icon" width="48px" height="48.00px" viewBox="0 0 1024 1024" version="1.1" xmlns="http://www.w3.org/2000/svg"><path d="M509.291 10.25c-225.059 0-407.507 182.443-407.507 407.507 0 52.486 9.925 102.657 27.999 148.735 0 0 0 0.005 0.005 0.005a404.204 404.204 0 0 0 21.01 45.179c44.191 87.804 159.463 283.236 358.493 401.671C708.283 894.936 823.543 699.562 867.758 611.73c31.278-57.678 49.04-123.752 49.04-193.973 0-225.059-182.449-407.507-407.507-407.507z" fill="#1296DB" /><path d="M509.291 768.47c-191.199 0-346.193-155-346.193-346.201 0-191.199 154.994-346.193 346.193-346.193S855.484 231.07 855.484 422.269c0 191.201-154.994 346.201-346.193 346.201z" fill="#FFFFFF" /><path d="M308.418 612.732a13.379 13.379 0 0 0 13.375 13.377h173.892a13.379 13.379 0 0 0 13.379-13.377V238.194a13.375 13.375 0 0 0-13.379-13.374H321.793c-7.387 0-13.375 5.989-13.375 13.375v374.537z m120.386-314.343c0-7.388 5.99-13.375 13.379-13.375h13.374c3.549 0 6.951 1.408 9.46 3.916a13.375 13.375 0 0 1 3.915 9.459v13.375a13.374 13.374 0 0 1-13.375 13.377h-13.374a13.375 13.375 0 0 1-13.379-13.377v-13.375z m0 90.289c0-7.386 5.99-13.375 13.379-13.375h13.374a13.373 13.373 0 0 1 13.375 13.375v14.492c0 7.388-5.986 13.377-13.375 13.377h-13.374a13.379 13.379 0 0 1-13.379-13.377v-14.492z m0 90.292c0-7.389 5.99-13.378 13.379-13.378h13.374a13.377 13.377 0 0 1 13.375 13.378v13.375a13.373 13.373 0 0 1-13.375 13.377h-13.374c-3.55 0-6.951-1.41-9.46-3.919a13.373 13.373 0 0 1-3.919-9.458V478.97z m-80.258-180.581c0-7.388 5.989-13.375 13.377-13.375h13.376c7.387 0 13.378 5.987 13.378 13.375v13.375c0 7.388-5.991 13.377-13.378 13.377h-13.376c-7.388 0-13.377-5.989-13.377-13.377v-13.375z m0 90.289c0-3.546 1.408-6.95 3.919-9.457a13.372 13.372 0 0 1 9.458-3.918h13.376a13.382 13.382 0 0 1 13.378 13.375v14.492c0 7.388-5.991 13.377-13.378 13.377h-13.376a13.376 13.376 0 0 1-13.377-13.377v-14.492z m0 90.292c0-3.548 1.408-6.95 3.919-9.459a13.373 13.373 0 0 1 9.458-3.919h13.376a13.379 13.379 0 0 1 13.378 13.378v13.375a13.379 13.379 0 0 1-13.378 13.377h-13.376c-3.548 0-6.95-1.41-9.458-3.919a13.364 13.364 0 0 1-3.919-9.458V478.97z m0 0" fill="#1296DB" /><path d="M542.502 415.431c-7.385 0-13.375 5.99-13.375 13.378v183.924a13.377 13.377 0 0 0 13.375 13.377h23.412a13.375 13.375 0 0 0 13.373-13.377v-70.449a13.375 13.375 0 0 1 13.377-13.375h53.506c3.549 0 6.949 1.41 9.459 3.916a13.382 13.382 0 0 1 3.918 9.459v70.449c0 3.549 1.41 6.951 3.916 9.459a13.387 13.387 0 0 0 9.459 3.918h23.41c3.547 0 6.949-1.41 9.457-3.918a13.37 13.37 0 0 0 3.92-9.459V428.809c0-3.548-1.41-6.95-3.92-9.459a13.372 13.372 0 0 0-9.457-3.919h-153.83z m0 0" fill="#1296DB" /></svg>