<?xml version="1.0" standalone="no"?><!DOCTYPE svg PUBLIC "-//W3C//DTD SVG 1.1//EN" "http://www.w3.org/Graphics/SVG/1.1/DTD/svg11.dtd"><svg class="icon" width="48px" height="47.95px" viewBox="0 0 1025 1024" version="1.1" xmlns="http://www.w3.org/2000/svg"><path d="M1021.248 802.88l-58.624-6.4a133.44 133.44 0 0 0-13.12-31.744l36.928-45.952c1.024-1.216 0.192-3.776-1.6-5.568l-33.984-33.984c-1.856-1.856-4.352-2.624-5.568-1.664l-45.952 36.928a136.192 136.192 0 0 0-31.744-13.12l-6.4-58.624c-0.192-1.536-2.496-2.752-5.12-2.752h-48c-2.688 0-4.928 1.216-5.12 2.752l-6.4 58.624c-11.136 3.008-21.76 7.424-31.68 13.12l-46.016-36.864c-1.216-1.024-3.712-0.256-5.568 1.6l-33.984 33.984c-1.856 1.792-2.624 4.352-1.6 5.568l36.928 45.952c-5.696 9.92-10.112 20.48-13.184 31.744l-58.624 6.4c-1.536 0.128-2.816 2.432-2.816 5.12v48c0 2.624 1.28 4.928 2.816 5.056l58.56 6.4c3.072 11.264 7.552 21.824 13.184 31.744l-36.928 45.952c-0.96 1.28-0.192 3.776 1.664 5.632l33.984 33.92c1.792 1.92 4.352 2.624 5.568 1.664l45.952-36.928c9.856 5.632 20.416 10.112 31.744 13.184l6.4 58.56c0.192 1.536 2.432 2.816 5.056 2.816h48c2.688 0 4.992-1.28 5.12-2.816l6.4-58.56c11.072-3.072 21.76-7.488 31.744-13.184l45.952 36.928c1.216 0.96 3.712 0.256 5.568-1.664l33.984-33.92c1.856-1.856 2.624-4.352 1.664-5.632l-36.992-45.952c5.76-9.984 10.176-20.608 13.184-31.744l58.624-6.4c1.536-0.128 2.752-2.432 2.752-5.056v-48c0.064-2.688-1.152-4.992-2.752-5.12m-189.184 131.328a102.272 102.272 0 1 1 0.064-204.608 102.272 102.272 0 0 1-0.064 204.608M787.456 832a44.608 44.608 0 1 0 89.152-0.064 44.608 44.608 0 0 0-89.152 0.064M420.416 899.2c15.808-15.552-3.392-28.8-15.04-40.32l-287.68-281.6 506.752-502.656c4.672-4.736 11.392-5.696 14.912-2.176l35.968 35.584-396.352 392.32c-15.808 15.68-19.2 37.696-7.424 49.28 11.712 11.52 33.92 8.32 49.792-7.36l396.352-392.32 169.024 167.36c3.52 3.456 2.56 10.048-2.176 14.72l-387.776 383.872c-15.744 15.616-19.136 37.696-7.424 49.28 11.712 11.52 33.92 8.256 49.792-7.36l387.776-383.872c36.224-35.84 43.904-86.72 17.088-113.28L696.64 15.808c-26.88-26.496-78.272-18.944-114.496 16.896L58.56 551.04c-3.712 3.648-7.168 23.936-7.808 28.544L1.92 903.36c-3.2 20.8-3.648 35.968 8.064 47.552 11.712 11.584 19.712 9.92 40.768 6.784l327.232-48.384c6.208-0.896 37.76-5.504 42.432-10.048zM68.928 896c-3.072 0.32-5.376-1.792-4.864-4.864L101.568 640 320 858.496 68.928 896z" fill="#1296db" /></svg>