<?xml version="1.0" standalone="no"?><!DOCTYPE svg PUBLIC "-//W3C//DTD SVG 1.1//EN" "http://www.w3.org/Graphics/SVG/1.1/DTD/svg11.dtd"><svg class="icon" width="48px" height="48.00px" viewBox="0 0 1024 1024" version="1.1" xmlns="http://www.w3.org/2000/svg"><path d="M936.75 523.67c0-23.44-9.13-45.5-25.66-62.05L568.51 118.6c-33.15-33.18-90.96-33.18-124.1-0.03L325.93 238.1c-34.2 34.2-34.23 89.88-0.06 124.1L668.4 705.17c16.59 16.59 38.61 25.71 62.11 25.71 23.43 0 45.46-9.12 62.02-25.68l26.59-27.7 23.87 23.9c11.45 11.44 11.45 29.96 1.7 39.85l-87.68 75.01c-11.38 11.47-29.93 11.44-41.37 0L491.16 591.52l-2.93-2.93c-34.22-34.2-89.9-34.29-124.1-0.09l-8.81 8.8-56.14-56.11c-11.44-11.44-29.96-11.4-41.36 0l-17.7 17.67c-0.03 0.03-0.06 0.03-0.08 0.06l-127.12 127c-34.2 34.2-34.23 89.88-0.03 124.14l75.99 77.19c17.09 17.08 39.59 25.66 62.05 25.66 22.47 0 44.94-8.54 62.08-25.63l123.66-132.72c0.03-0.02 0.03-0.06 0.06-0.08l17.7-17.67c5.5-5.5 8.57-12.9 8.57-20.69 0-7.75-3.08-15.21-8.55-20.68l-57.73-56.64 8.78-8.78c11.41-11.46 29.96-11.43 41.36 0.04v-0.04l2.93 2.93v0.03L674.3 857.75c17.32 17.29 40.11 25.83 62.67 25.83 21.97 0 43.71-8.14 59.77-24.28l87.67-75.02c34.23-34.2 34.26-89.9 0.03-124.16l-23.88-23.87 50.49-50.43c16.55-16.66 25.7-38.68 25.7-62.15z m-114.48 23.76c-5.7 5.56-13.07 8.37-20.48 8.37-7.61 0-15.18-2.93-20.89-8.77l-294.92-301c-11.3-11.55-11.12-30.04 0.44-41.37 11.53-11.29 30.07-11.14 41.37 0.44l294.9 300.96c11.28 11.55 11.14 30.05-0.42 41.37z m0 0" fill="#1296db" /></svg>