<?xml version="1.0" standalone="no"?><!DOCTYPE svg PUBLIC "-//W3C//DTD SVG 1.1//EN" "http://www.w3.org/Graphics/SVG/1.1/DTD/svg11.dtd"><svg class="icon" width="48px" height="48.00px" viewBox="0 0 1024 1024" version="1.1" xmlns="http://www.w3.org/2000/svg"><path d="M341.333333 256h-85.333333V106.666667a21.333333 21.333333 0 0 1 21.333333-21.333334h42.666667a21.333333 21.333333 0 0 1 21.333333 21.333334z m426.666667-149.333333a21.333333 21.333333 0 0 0-21.333333-21.333334h-42.666667a21.333333 21.333333 0 0 0-21.333333 21.333334v149.333333h85.333333z m170.666667 192v42.666666a21.333333 21.333333 0 0 1-21.333334 21.333334h-128v213.333333l-79.146666 138.666667a21.333333 21.333333 0 0 1-18.56 10.666666H332.373333a21.333333 21.333333 0 0 1-18.56-10.666666L234.666667 576V362.666667H106.666667a21.333333 21.333333 0 0 1-21.333334-21.333334v-42.666666a21.333333 21.333333 0 0 1 21.333334-21.333334h810.666666a21.333333 21.333333 0 0 1 21.333334 21.333334z m-426.666667 158.72L541.013333 362.666667h-13.866666L405.333333 490.666667l106.666667 33.28L476.373333 640 618.666667 490.666667zM384 789.333333a21.333333 21.333333 0 0 0 21.333333 21.333334h64v128h85.333334v-128h64a21.333333 21.333333 0 0 0 21.333333-21.333334v-42.666666H384z" fill="#348AD3" /></svg>