<?xml version="1.0" standalone="no"?><!DOCTYPE svg PUBLIC "-//W3C//DTD SVG 1.1//EN" "http://www.w3.org/Graphics/SVG/1.1/DTD/svg11.dtd"><svg class="icon" width="48px" height="48.00px" viewBox="0 0 1024 1024" version="1.1" xmlns="http://www.w3.org/2000/svg"><path d="M365.2 631.8V484.3c0-14.7-14.7-29.5-33-29.5V229.9l11-55.3-11-110.6h-62.4l-14.7 110.6 11 55.3v224.9c-18.4 0-33 11.1-33 29.5v147.5c-14.7 11.1-25.7 25.8-25.7 47.9v224.9c0 29.5 29.4 55.3 62.4 55.3h62.4c33 0 62.4-25.8 62.4-55.3V679.8c-0.1-22.2-11.1-36.9-29.4-48z m451.4-401.9c0-55.3-25.7-129-58.7-165.9 0 0-22 0-22 22.1v118c0 14.7-11 29.5-25.7 29.5H548.7c-14.7 0-25.7-11.1-25.7-29.5v-118C523 64 497.3 64 497.3 64c-36.7 36.9-58.7 110.6-58.7 165.9 0 77.4 44 114.3 106.4 129.1v516.2c0 44.3 33 77.4 73.4 77.4h11c40.4 0 73.4-36.9 73.4-77.4V359c69.8-11.1 113.8-47.9 113.8-129.1z m0 0" fill="#FE5B4E" /></svg>