<?xml version="1.0" standalone="no"?><!DOCTYPE svg PUBLIC "-//W3C//DTD SVG 1.1//EN" "http://www.w3.org/Graphics/SVG/1.1/DTD/svg11.dtd"><svg class="icon" width="48px" height="48.00px" viewBox="0 0 1024 1024" version="1.1" xmlns="http://www.w3.org/2000/svg"><path d="M201.663976 615.445h293.096384v68.965722h34.481326v-68.965722h293.096385v68.965722h34.481325V580.964698H529.241686v-68.964698h-34.481326V580.964698h-327.58078v103.446024h34.484396v-68.965722z m293.097408-189.647291h34.481325v51.720965h103.445001V98.216929H391.311267V477.518674h103.449093v-51.720965z m68.960604-293.097408h34.484396v34.481326h-34.484396v-34.481326z m0 68.965721h34.484396v34.480303h-34.484396V201.666022z m0 68.961628h34.484396v34.483373h-34.484396v-34.483373z m0 68.961628h34.484396v34.481326h-34.484396v-34.481326z m-68.960604-206.888977h34.481325v34.481326h-34.481325v-34.481326z m0 68.965721h34.481325v34.480303h-34.481325V201.666022z m0 68.961628h34.481325v34.483373h-34.481325v-34.483373z m0 68.961628h34.481325v34.481326h-34.481325v-34.481326z m-34.484396 34.480303h-34.481325v-34.481326h34.481325v34.481326z m0-68.958558h-34.481325v-34.483373h34.481325v34.483373z m0-68.964698h-34.481325V201.666022h34.481325v34.480303z m0-68.964698h-34.481325v-34.481326h34.481325v34.481326zM98.214882 925.783071h68.964698v-34.481326h34.484396v34.481326h68.961628v-206.892047H98.214882v206.892047z m103.449094-172.403558h34.480302v34.473139h-34.480302v-34.473139z m0 68.960604h34.480302v34.480303h-34.480302v-34.480303z m-68.964698-68.960604h34.480302v34.473139h-34.480302v-34.473139z m0 68.960604h34.480302v34.480303h-34.480302v-34.480303z m293.096385 103.442954h68.964697v-34.481326h34.481326v34.481326h68.964698v-206.892047H425.795663v206.892047z m103.446023-172.403558h34.480302v34.473139h-34.480302v-34.473139z m0 68.960604h34.480302v34.480303h-34.480302v-34.480303z m-68.964698-68.960604h34.483372v34.473139H460.276988v-34.473139z m0 68.960604h34.483372v34.480303H460.276988v-34.480303z m293.096385-103.449093v206.892047h68.964698v-34.481326h34.481325v34.481326h68.964698v-206.892047H753.373373z m68.965721 137.929396h-34.484395v-34.480303h34.484395v34.480303z m0-68.967768h-34.484395v-34.473139h34.484395v34.473139z m68.964698 68.967768h-34.483372v-34.480303h34.483372v34.480303z m0-68.967768h-34.483372v-34.473139h34.483372v34.473139z" fill="#1296db" /></svg>