<?xml version="1.0" encoding="utf-8"?>
<!-- Generator: Adobe Illustrator 23.0.0, SVG Export Plug-In . SVG Version: 6.00 Build 0)  -->
<svg version="1.1" id="图层_1" xmlns="http://www.w3.org/2000/svg" xmlns:xlink="http://www.w3.org/1999/xlink" x="0px" y="0px"
	 viewBox="0 0 48 48" style="enable-background:new 0 0 48 48;" xml:space="preserve">
<style type="text/css">
	.st0{fill:#4AB134;}
</style>
<path class="st0" d="M12.7,18.2c1.2,4,3.6,5.5,7.4,7c0.6,0.2,1.3,0.2,1.9,0.1c3.5-0.4,7-3.8,7.9-7.1c0.6-0.4,1.1-1,1.4-1.7
	c0.4-0.8,0.5-1.9,0.5-3.2V13l-0.4-0.2c-0.1-0.1-0.2-0.1-0.4-0.2c0.7-5-0.2-8.4-2.9-10.3c-3.7-2.9-10.9-2.9-14.6,0.2
	c-2.4,2-3.1,4.6-2.3,10.1c-0.1,0-0.1,0.1-0.2,0.1l-0.4,0.2v0.4c0,1.3,0.1,2.4,0.5,3.2C11.6,17.3,12.1,17.9,12.7,18.2z M27.5,37.5
	c0-5.4,4.1-9.8,9.2-10.3l-0.4-0.4h-4.2c-1.1,0.1-2,0-2.8-0.4l-4.8,11l-1.3-7.1l1-0.5v-1.1h-4.1V30l1,0.5l-1.3,7.4L14.2,26
	c-0.7,0.8-1.8,1.2-3.1,1.1H6.5c-4.9,4.2-5.8,12.6-5.9,17.5c1,1,2.9,1.7,5.3,2.2l0.8-2.9l1.9,3.4c7.2,1.1,17.5,1,25.1-0.1
	C29.9,45.4,27.5,41.6,27.5,37.5z"/>
<path class="st0" d="M35.5,41.9H32v2.5h5.7c2.6,0,4.5-0.6,5.9-1.8c1.4-1.2,2.1-2.9,2.1-5c0-2-0.7-3.7-2-5c-1.4-1.3-3.2-1.9-5.6-1.9
	H32v8.5h2.8v-6h3.6c1.5,0,2.6,0.4,3.4,1.2c0.8,0.8,1.2,1.8,1.2,3.2c0,1.3-0.4,2.4-1.2,3.2c-0.8,0.8-2.7,1.2-4.1,1.2L35.5,41.9
	C35.5,41.9,35.5,41.9,35.5,41.9z"/>
</svg>
