<?xml version="1.0" standalone="no"?><!DOCTYPE svg PUBLIC "-//W3C//DTD SVG 1.1//EN" "http://www.w3.org/Graphics/SVG/1.1/DTD/svg11.dtd"><svg class="icon" width="48px" height="48.00px" viewBox="0 0 1024 1024" version="1.1" xmlns="http://www.w3.org/2000/svg"><path d="M804.571429 309.450549h-140.659341l-90.021978-157.538461c-5.626374-5.626374-11.252747-16.879121-22.505495-22.505495-33.758242-22.505495-84.395604-11.252747-101.274725 28.131869L360.087912 309.450549H219.428571c-56.263736 0-101.274725 45.010989-101.274725 101.274726v393.846154c0 56.263736 45.010989 101.274725 101.274725 101.274725h585.142858c56.263736 0 101.274725-45.010989 101.274725-101.274725v-393.846154c0-56.263736-45.010989-101.274725-101.274725-101.274726zM495.120879 185.67033c0-5.626374 5.626374-5.626374 5.626374-5.626374 11.252747-5.626374 22.505495 0 28.131868 5.626374l73.142857 129.406593H421.978022l73.142857-129.406593zM320.703297 495.120879h151.912088c16.879121 0 28.131868 11.252747 28.131868 28.131868s-11.252747 28.131868-28.131868 28.131868H320.703297c-16.879121 0-28.131868-11.252747-28.131868-28.131868s11.252747-28.131868 28.131868-28.131868z m421.978022 230.681319H320.703297c-16.879121 0-28.131868-11.252747-28.131868-28.131868s11.252747-28.131868 28.131868-28.131868h427.604395c16.879121 0 28.131868 11.252747 28.131868 28.131868-5.626374 16.879121-16.879121 28.131868-33.758241 28.131868z" fill="#d4237a" /></svg>