<?xml version="1.0" standalone="no"?><!DOCTYPE svg PUBLIC "-//W3C//DTD SVG 1.1//EN" "http://www.w3.org/Graphics/SVG/1.1/DTD/svg11.dtd"><svg class="icon" width="48px" height="48.00px" viewBox="0 0 1024 1024" version="1.1" xmlns="http://www.w3.org/2000/svg"><path d="M796.444444 682.666667a56.888889 56.888889 0 1 1 56.888889-56.888889 56.888889 56.888889 0 0 1-56.888889 56.888889z m92.16-512l-65.422222-113.777778a113.777778 113.777778 0 0 0-155.306666-41.528889L398.222222 170.666667zM1024 512h-227.555556a113.777778 113.777778 0 0 0 0 227.555556h227.555556v170.666666a113.777778 113.777778 0 0 1-113.777778 113.777778H113.777778a113.777778 113.777778 0 0 1-113.777778-113.777778V341.333333a113.777778 113.777778 0 0 1 113.777778-113.777777h796.444444a113.777778 113.777778 0 0 1 113.777778 113.777777z" fill="#8889B0" /></svg>