<?xml version="1.0" standalone="no"?><!DOCTYPE svg PUBLIC "-//W3C//DTD SVG 1.1//EN" "http://www.w3.org/Graphics/SVG/1.1/DTD/svg11.dtd"><svg class="icon" width="48px" height="48.00px" viewBox="0 0 1024 1024" version="1.1" xmlns="http://www.w3.org/2000/svg"><path d="M311.808 434.176v216.576H0V434.176h311.808z m-69.12-320h158.72c-29.696 96.768-59.904 193.024-89.6 289.28H0c80.896-96.256 161.792-192.512 242.688-289.28z m379.392 0h159.232C862.208 210.944 943.104 307.2 1024 403.456H712.192c-30.208-96.256-60.416-192.512-90.112-289.28z m-189.44 0c-25.6 96.256-51.2 193.024-76.288 289.28H668.16c-25.6-96.256-50.688-193.024-76.288-289.28H432.64zM1024 693.248v216.576H712.192V693.248H1024zM750.08 810.496c35.328 14.336 67.584 35.328 95.232 60.928h36.864c-36.352-38.912-81.92-68.608-132.096-86.528v25.6z m0 34.304v26.624h44.544c-13.824-9.728-28.672-18.944-44.544-26.624z m176.128 27.136h31.744c-51.2-67.584-122.368-116.736-203.776-140.8h-4.096v21.504c69.12 21.504 130.048 62.976 176.128 119.296z m59.904-18.432v-37.376a427.41 427.41 0 0 0-104.448-84.992H837.12c58.368 28.16 109.568 70.144 148.992 122.368z m0-84.48v-37.888H939.52c16.384 11.264 31.744 24.064 46.592 37.888zM668.16 693.248v216.576H355.84V693.248h312.32zM394.24 810.496c35.328 14.336 67.584 35.328 95.232 60.928h36.864c-36.352-38.912-81.92-68.608-132.096-86.528v25.6z m0 34.304v26.624h44.544c-14.336-9.728-29.184-18.944-44.544-26.624z m175.616 27.136H601.6c-51.2-67.584-122.368-116.736-203.776-140.8h-3.584v21.504c68.608 21.504 130.048 62.976 175.616 119.296z m60.416-18.432v-37.376c-30.208-33.792-65.536-62.464-104.96-84.992H481.28c58.368 28.16 109.568 70.144 148.992 122.368z m0-84.48v-37.888H583.68c16.384 11.264 31.744 24.064 46.592 37.888z m-318.464-75.776v216.576H0V693.248h311.808zM37.888 810.496c35.328 14.336 67.584 35.328 95.232 60.928h36.864c-36.864-38.912-81.92-68.608-132.096-86.528v25.6z m0 34.304v26.624h44.544C68.608 861.696 53.76 852.48 37.888 844.8z m176.128 27.136h31.744c-51.2-67.584-122.368-116.736-203.776-140.8h-4.096v21.504c69.12 21.504 130.048 62.976 176.128 119.296z m59.904-18.432v-37.376a427.41 427.41 0 0 0-104.448-84.992h-44.544c58.88 28.16 109.568 70.144 148.992 122.368z m0-84.48v-37.888h-46.592c16.384 11.264 31.744 24.064 46.592 37.888zM1024 434.176v216.576H712.192V434.176H1024z m-273.92 117.76c35.328 14.336 67.584 34.816 95.232 60.928h36.864c-36.352-38.912-81.92-68.608-132.096-86.528v25.6z m0 34.304v26.624h44.544c-14.336-10.24-29.184-18.944-44.544-26.624z m176.128 27.136h31.744c-51.2-67.584-122.368-116.736-203.776-140.8h-4.096v21.504c69.12 21.504 130.048 62.976 176.128 119.296z m59.904-18.944v-37.376a427.41 427.41 0 0 0-104.448-84.992H837.12c58.368 28.672 109.568 70.656 148.992 122.368z m0-83.968v-37.888H939.52c16.384 11.264 31.744 24.064 46.592 37.888z m-318.464-76.288v216.576H355.84V434.176h311.808z m-273.92 117.76c35.328 14.336 67.584 34.816 95.232 60.928h36.864c-36.352-38.912-81.92-68.608-132.096-86.528v25.6z m0 34.304v26.624h44.544c-13.824-10.24-28.672-18.944-44.544-26.624z m176.128 27.136H601.6c-51.2-67.584-122.368-116.736-203.776-140.8h-4.096v21.504c69.12 21.504 130.56 62.976 176.128 119.296z m59.904-18.944v-37.376c-30.208-33.792-65.536-62.464-104.96-84.992h-44.032c58.88 28.672 110.08 70.656 148.992 122.368z m0-83.968v-37.888h-46.08c16.384 11.264 31.744 24.064 46.08 37.888zM37.888 551.936c35.328 14.336 67.584 34.816 95.232 60.928h36.864c-36.352-38.912-81.92-68.608-132.096-86.528v25.6z m0 34.304v26.624h44.544c-13.824-10.24-29.184-18.944-44.544-26.624z m176.128 27.136h31.744c-51.2-67.584-122.88-116.736-203.776-140.8h-4.096v21.504c69.12 21.504 130.048 62.976 176.128 119.296z m59.904-18.944v-37.376c-30.208-33.792-65.536-62.464-104.96-84.992h-44.032c58.88 28.672 109.568 70.656 148.992 122.368z m0-83.968v-37.888h-46.592c16.384 11.264 31.744 24.064 46.592 37.888z" fill="#F5624F" /></svg>