<?xml version="1.0" standalone="no"?><!DOCTYPE svg PUBLIC "-//W3C//DTD SVG 1.1//EN" "http://www.w3.org/Graphics/SVG/1.1/DTD/svg11.dtd"><svg class="icon" width="200px" height="200.00px" viewBox="0 0 1024 1024" version="1.1" xmlns="http://www.w3.org/2000/svg"><path d="M874.580791 1024H99.95209A99.95209 99.95209 0 0 1 0 924.04791V149.419209A99.95209 99.95209 0 0 1 99.95209 49.467119h432.792552a39.980836 39.980836 0 0 1 0 79.961672H99.95209a19.990418 19.990418 0 0 0-19.990418 19.990418v774.628701a19.990418 19.990418 0 0 0 19.990418 19.990418h774.628701a19.990418 19.990418 0 0 0 19.990418-19.990418V500.251047a39.980836 39.980836 0 1 1 79.961672 0v423.796863a99.95209 99.95209 0 0 1-99.95209 99.95209z"/><path d="M288.861541 672.168642a39.980836 39.980836 0 0 1-38.981315-48.976524l24.988022-107.948258a429.793988 429.793988 0 0 1 378.818423-332.840461V40.471431a39.980836 39.980836 0 0 1 66.9679-29.985627l289.861062 258.875914a39.980836 39.980836 0 0 1-0.99952 59.971254L719.65505 577.214156a39.980836 39.980836 0 0 1-65.968379-29.985627V419.289853a366.824172 366.824172 0 0 0-240.884538 127.938676l-92.955444 110.94682a39.980836 39.980836 0 0 1-30.985148 13.993293z m444.786802-541.74033v90.956403a39.980836 39.980836 0 0 1-39.980836 39.980836c-143.93101 0-268.871123 84.959277-322.845252 213.897473a446.785844 446.785844 0 0 1 322.845252-137.933885 39.980836 39.980836 0 0 1 39.980836 39.980836v82.960235l188.909451-161.922386z" /></svg>