<?xml version="1.0" encoding="utf-8"?>
<!-- Generator: Adobe Illustrator 23.1.1, SVG Export Plug-In . SVG Version: 6.00 Build 0)  -->
<svg version="1.1" id="图层_1" xmlns="http://www.w3.org/2000/svg" xmlns:xlink="http://www.w3.org/1999/xlink" x="0px" y="0px"
	 viewBox="0 0 2721.26 368.5" style="enable-background:new 0 0 2721.26 368.5;" xml:space="preserve">
<style type="text/css">
	.st0{fill:#00A0E9;}
</style>
<g>
	<g>
		<path class="st0" d="M1643.25,116.59l-32.26,182.98l34.44,41.83l47.02-266.63h-83.65L1643.25,116.59z M1653.39,59.08h41.82
			l-34.44-41.82L1653.39,59.08z M1810.87,262.97l-7.37,41.83l30.14,36.59l7.37-41.83L1810.87,262.97z M1864.98,163.64
			L1864.98,163.64l-94.1,0.01l33.41,40.56l-134.88,90.14l-8.29,47.05l195.55-130.7l0.93-5.23h0.01L1864.98,163.64L1864.98,163.64
			L1864.98,163.64z M1887.1,38.17h-172.53l-7.37,41.82l34.44,41.82l11.07-62.73h88.87l-14.74,83.65h41.82L1887.1,38.17L1887.1,38.17
			L1887.1,38.17z"/>
		<path class="st0" d="M2037.95,116.6l-32.28,182.98l34.46,41.83l47-266.63h-83.63L2037.95,116.6z M2048.08,59.09h41.82
			l-34.45-41.83L2048.08,59.09z M2243.66,17.26h-41.83l-18.43,104.56h-88.89l17.23,20.91h67.96L2144.7,341.4l49.19-41.83
			l27.65-156.84h41.82l3.69-20.91h-41.83L2243.66,17.26z"/>
		<g>
			<path class="st0" d="M2434.37,49.53l-51.51,290.39l-31.16-37.8l44.76-284.86h97.79l-5.72,32.27l-14.85,49.25h6.11l-20.85,118.18
				l-41.85,33.96l26.88-152.14h-7.64l16.37-49.25H2434.37z M2616.47,17.26l0.65,13.59h76.37l-8.74,49.25h-43.63l5.23-29.49h-87.58
				l-5.23,29.49h-43.63l8.74-49.25h70.26l-0.65-13.59H2616.47z M2503.38,116.86l3.71-20.9h174.85l-3.71,20.9H2503.38z
				 M2496.55,155.33l3.71-20.9h174.85l-3.71,20.9h-26.8l-26.45,150.72l20.5,33.86h-40.41l-23.02-33.86l26.74-150.72h-36
				l-48.02,184.59l-35.87-37.8l36.86-146.79H2496.55z"/>
		</g>
		<g>
			<path class="st0" d="M1268.94,17.26h233l-50.65,287.28l-7.42,36.83l-27.42-42.35l1.76-9.75l41.66-236.24h-162.56l-50.57,288.34
				l-27.41-42.8L1268.94,17.26z M1301.26,194.48l-3.15-123.52h29.26l0.56,58.29l21.95-56.9h54.19l2.87,51.35l20.97-51.35h28.18
				l-45.34,109.64l-2.19,111.05h-27.99l3.5-45.82l0,0l0,0l-1.5-65.23l-6.22-99.92l-47.16,113.8l4.55,97.15h-29.26l-0.49-40.25
				L1301.26,194.48"/>
		</g>
		<g>
			<path class="st0" d="M518.87,57.07h-21.44l7.02-39.81l206.3,0.75l12.3,39.05H553.58l-9.33,35.54h165.39l-51.39,204.65h22.46
				l-6.52,36.96l-213.39,1.07l-11.84-38.03h171.51l9.58-36.97H463.64L518.87,57.07z M663.05,130.99H536.46l-26.23,96.67h128.63
				L663.05,130.99z"/>
		</g>
		<g>
			<g>
				<path class="st0" d="M945.57,314.39l-5.13,29.07l-22.54-47.31l4.07-29.2l-82.44-0.69l-15.1-26.62l0,0h44.17l34.53-190.32h-19.11
					l5.92-33.57h116.77l-5.92,33.57h-8.49l-33.79,190.6l16.27-0.28L969.88,266l-15.71,0.14l-6.28,35.14 M960.47,49.32h-27.6
					l-7.95,45.09h27.6L960.47,49.32z M918.75,129.37l-6.94,39.33h27.6l6.94-39.33H918.75z M934.31,203.67h-28.66l-5.76,35.97h27.85
					L934.31,203.67z"/>
			</g>
			<g>
				<g>
					<path class="st0" d="M966.98,298.13 M1023.96,203.86l-33.13-34.84l0,0h38.52l7.88-44.71l-29.99-36.33l0,0h56.57h29.72h28.66
						l-6.41,36.33h-46.71l-7.88,44.71l54.34,0.26l-6.11,35.02l-46.88,0.53l24.71,137.13l-41.04-43.27c0,0,0.48,0.32,0,0
						 M974.03,234.8 M1058.34,11.24"/>
				</g>
				<polygon class="st0" points="1024.64,59.09 1063.58,59.09 1039.39,17.27 				"/>
				<polygon class="st0" points="1113.89,16.19 1072.07,58.01 1113.89,58.01 				"/>
			</g>
		</g>
	</g>
	<g>
		<polygon class="st0" points="221.75,11 188.82,17.08 197.94,145.28 232.05,145.08 		"/>
		<path class="st0" d="M216.54,217.9c1.09-18.68-6.3-33.38-31.75-38.14c-32.32-5.71-20.22-34.28-20.22-34.28L221.75,11l-33.37,0.19
			l-53.49,124.14c0,0-15.72,36.45-0.41,54.55c11.56,14.18,28.61,14.08,45.43,17.42c42.55,8.6,16.4,49.53,16.4,49.53
			S215.39,239.04,216.54,217.9z"/>
	</g>
	<g>
		<path class="st0" d="M73.58,339.87l-2.67-16.1H44.02l-9.32,16.1H21.99l40.14-68.01h10.9l13.62,68.01H73.58z M50.2,312.6h18.89
			l-4.58-24.97L50.2,312.6z"/>
		<path class="st0" d="M179.06,271.86h13.08l-11.27,57.83h29.06l-1.99,10.18H165.8L179.06,271.86z"/>
		<path class="st0" d="M310.69,339.87h-22.89l13.26-68.01h22.52c22.68,0.44,32.08,11.83,28.21,34.17
			C347.56,329.03,333.86,340.31,310.69,339.87z M322.2,282.71h-10.54l-9.16,46.98h10.9c14.44,0.44,23.12-7.44,26.05-23.66
			C342.48,290.48,336.73,282.71,322.2,282.71z"/>
	</g>
</g>
</svg>
