<?xml version="1.0" encoding="UTF-8"?>
<svg width="21px" height="19px" viewBox="0 0 21 19" version="1.1" xmlns="http://www.w3.org/2000/svg" xmlns:xlink="http://www.w3.org/1999/xlink">
    <!-- Generator: Sketch 63.1 (92452) - https://sketch.com -->
    <title>信息</title>
    <desc>Created with Sketch.</desc>
    <g id="页面-1" stroke="none" stroke-width="1" fill-rule="evenodd">
        <g id="0规范" transform="translate(-772.000000, -642.000000)"  fill-rule="nonzero">
            <g id="文字框" transform="translate(599.000000, 632.000000)">
                <g id="输入按钮" transform="translate(14.000000, 11.000000)">
                    <g id="信息" transform="translate(160.000000, 0.000000)">
                        <path d="M3.8,7.6 C3.79993587,8.05251503 4.04134714,8.47068361 4.43328151,8.69695964 C4.82521588,8.92323567 5.30811746,8.92323567 5.70005183,8.69695964 C6.0919862,8.47068361 6.33339747,8.05251503 6.33333333,7.6 C6.33339747,7.14748497 6.0919862,6.72931639 5.70005183,6.50304036 C5.30811746,6.27676433 4.82521588,6.27676433 4.43328151,6.50304036 C4.04134714,6.72931639 3.79993587,7.14748497 3.8,7.6 L3.8,7.6 Z" id="路径"></path>
                        <path d="M8.86666667,7.6 C8.86666667,8.29956068 9.43377265,8.86666667 10.1333333,8.86666667 C10.832894,8.86666667 11.4,8.29956068 11.4,7.6 C11.4,6.90043932 10.832894,6.33333333 10.1333333,6.33333333 C9.43377265,6.33333333 8.86666667,6.90043932 8.86666667,7.6 L8.86666667,7.6 Z" id="路径"></path>
                        <path d="M12.6666667,7.6 C12.6666667,8.29956068 13.2337727,8.86666667 13.9333333,8.86666667 C14.632894,8.86666667 15.2,8.29956068 15.2,7.6 C15.2,6.90043932 14.632894,6.33333333 13.9333333,6.33333333 C13.2337727,6.33333333 12.6666667,6.90043932 12.6666667,7.6 L12.6666667,7.6 Z" id="路径"></path>
                        <path d="M9.73456789,17.7333333 C9.56333333,17.7333333 9.40382715,17.6532473 9.30530863,17.5182452 L7.49679012,15.0470194 C5.45604938,14.696929 3.59827161,13.804542 2.24246914,12.5208774 C1.53641976,11.8527312 0.982839496,11.0976344 0.600493837,10.280757 C0.201728393,9.42726883 0,8.52801722 0,7.60817205 C0,6.56705376 0.258024701,5.55796989 0.764691367,4.6083785 C1.25024693,3.69997421 1.94222223,2.88767311 2.82419753,2.19206881 C4.61160494,0.77797847 6.98308643,0 9.5,0 C12.0169136,0 14.3883951,0.777978495 16.1758025,2.19206881 C17.0554321,2.88767311 17.7497531,3.69997418 18.2353086,4.6083785 C18.7419753,5.55796989 19,6.56705376 19,7.60817205 C19,8.48683011 18.8146914,9.34947097 18.4487654,10.1709247 C18.0969136,10.9580559 17.5902469,11.690271 16.9358025,12.3469763 C16.2954321,12.9899527 15.5330864,13.5436903 14.6722222,13.992172 C13.8606173,14.4154839 12.978642,14.7335398 12.0497531,14.9394753 L10.1614815,17.5182452 C10.0653087,17.6532473 9.90580247,17.7333333 9.73456789,17.7333333 Z M9.5,1.0296774 C4.84382717,1.0296774 1.05555556,3.98141934 1.05555556,7.60817205 C1.05555556,10.7498323 3.92432101,13.4658925 7.8791358,14.0653935 C8.01987655,14.0859871 8.14419753,14.1614968 8.22629631,14.2759054 L9.73222223,16.3329721 L11.3085185,14.1798022 C11.3859259,14.0745463 11.5008642,14.0013247 11.6298765,13.9761548 C15.3501235,13.2187699 17.9444444,10.6011011 17.9444444,7.60817205 C17.9444444,3.98141936 14.1561728,1.0296774 9.5,1.0296774 Z" id="形状" stroke="#ABABAB" stroke-width="0.5"></path>
                    </g>
                </g>
            </g>
        </g>
    </g>
</svg>