<?xml version="1.0" standalone="no"?><!DOCTYPE svg PUBLIC "-//W3C//DTD SVG 1.1//EN" "http://www.w3.org/Graphics/SVG/1.1/DTD/svg11.dtd"><svg class="icon" width="200px" height="200.00px" viewBox="0 0 1024 1024" version="1.1" xmlns="http://www.w3.org/2000/svg"><path d="M980.96 322.08v347.2L737.44 496l243.52-173.92zM640.96 652.48H55.52a34.88 34.88 0 0 1-34.56-34.56 34.88 34.88 0 0 1 34.56-34.72h585.44a34.72 34.72 0 0 1 34.56 34.72 34.72 34.72 0 0 1-34.56 34.56z m0-244.32H55.52a34.88 34.88 0 0 1-34.56-34.72 34.72 34.72 0 0 1 34.56-34.56h585.44a34.56 34.56 0 0 1 34.56 34.56 34.72 34.72 0 0 1-34.56 34.72z m305.44-235.68H55.52a34.72 34.72 0 0 1-34.56-34.56 34.88 34.88 0 0 1 34.56-34.72h890.88a34.72 34.72 0 0 1 34.56 34.72 34.56 34.56 0 0 1-34.56 34.56z m0 715.52H55.52a34.72 34.72 0 0 1-34.56-34.56 34.72 34.72 0 0 1 34.56-34.56h890.88a34.56 34.56 0 0 1 34.56 34.56 34.56 34.56 0 0 1-34.56 34.56z" fill="#4592D8" /></svg>