<?xml version="1.0" standalone="no"?><!DOCTYPE svg PUBLIC "-//W3C//DTD SVG 1.1//EN" "http://www.w3.org/Graphics/SVG/1.1/DTD/svg11.dtd"><svg t="1617096936209" class="icon" viewBox="0 0 1024 1024" version="1.1" xmlns="http://www.w3.org/2000/svg" p-id="2971" xmlns:xlink="http://www.w3.org/1999/xlink" width="64" height="64"><defs><style type="text/css"></style></defs><path d="M608 96a32 32 0 0 1 32 32v281.6l261.056 41.792a32 32 0 0 1 26.944 31.584V896a32 32 0 0 1-32 32H128a32 32 0 0 1-32-32V128a32 32 0 0 1 32-32h480zM304 672h-96a16 16 0 0 0-15.744 13.12L192 688v96a16 16 0 0 0 13.12 15.744L208 800h96a16 16 0 0 0 15.744-13.12L320 784v-96a16 16 0 0 0-16-16z m224 0h-96a16 16 0 0 0-15.744 13.12L416 688v96a16 16 0 0 0 13.12 15.744l2.88 0.256h96a16 16 0 0 0 15.744-13.12L544 784v-96a16 16 0 0 0-16-16z m329.6 32h-147.2a6.4 6.4 0 0 0-6.176 4.704L704 710.4v51.2a6.4 6.4 0 0 0 4.704 6.176L710.4 768h147.2a6.4 6.4 0 0 0 6.176-4.704L864 761.6v-51.2a6.4 6.4 0 0 0-4.704-6.176L857.6 704z m0-128h-147.2a6.4 6.4 0 0 0-6.176 4.704L704 582.4v51.2a6.4 6.4 0 0 0 4.704 6.176L710.4 640h147.2a6.4 6.4 0 0 0 6.176-4.704L864 633.6v-51.2a6.4 6.4 0 0 0-4.704-6.176L857.6 576zM304 448h-96a16 16 0 0 0-15.744 13.12L192 464v96a16 16 0 0 0 13.12 15.744L208 576h96a16 16 0 0 0 15.744-13.12L320 560v-96a16 16 0 0 0-16-16z m224 0h-96a16 16 0 0 0-15.744 13.12L416 464v96a16 16 0 0 0 13.12 15.744l2.88 0.256h96a16 16 0 0 0 15.744-13.12L544 560v-96a16 16 0 0 0-16-16z m-224-224h-96a16 16 0 0 0-15.744 13.12L192 240v96a16 16 0 0 0 13.12 15.744L208 352h96a16 16 0 0 0 15.744-13.12L320 336v-96a16 16 0 0 0-16-16z m224 0h-96a16 16 0 0 0-15.744 13.12L416 240v96a16 16 0 0 0 13.12 15.744l2.88 0.256h96a16 16 0 0 0 15.744-13.12L544 336v-96a16 16 0 0 0-16-16z" p-id="2972"></path></svg>