<?xml version="1.0" standalone="no"?><!DOCTYPE svg PUBLIC "-//W3C//DTD SVG 1.1//EN" "http://www.w3.org/Graphics/SVG/1.1/DTD/svg11.dtd"><svg t="1535532816416" class="icon" style="" viewBox="0 0 1024 1024" version="1.1" xmlns="http://www.w3.org/2000/svg" p-id="3823" xmlns:xlink="http://www.w3.org/1999/xlink" width="14" height="14"><defs><style type="text/css"></style></defs><path d="M832 972.8h-633.6c-108.8 0-147.2-44.8-147.2-153.6v-620.8c0-108.8 32-147.2 147.2-147.2h486.4c6.4 0 12.8 0 19.2 6.4l256 204.8c6.4 6.4 12.8 12.8 12.8 19.2v531.2c0 108.8-25.6 160-140.8 160z m-633.6-864c-83.2 0-89.6 12.8-89.6 89.6v620.8c0 83.2 6.4 96 89.6 96h633.6c70.4 0 83.2-6.4 83.2-96v-518.4l-236.8-192h-480z" p-id="3824"></path><path d="M697.6 409.6h-371.2c-32 0-64-6.4-64-64v-256c0-6.4 6.4-12.8 12.8-12.8s12.8 6.4 12.8 12.8v256c0 25.6 0 32 32 32h371.2c25.6 0 32 0 32-32v-211.2c0-6.4 6.4-12.8 12.8-12.8s12.8 6.4 12.8 12.8v211.2c6.4 44.8 0 64-51.2 64z" p-id="3825"></path><path d="M614.4 294.4c-12.8 0-32-12.8-32-32v-83.2c0-12.8 12.8-25.6 32-25.6 12.8 0 25.6 12.8 25.6 25.6v83.2c0 19.2-12.8 32-25.6 32zM403.2 614.4h-115.2c-6.4 0-12.8-6.4-12.8-12.8s6.4-12.8 12.8-12.8h115.2c6.4 0 12.8 6.4 12.8 12.8 6.4 6.4 0 12.8-12.8 12.8zM608 614.4h-140.8c-6.4 0-12.8-6.4-12.8-12.8s6.4-12.8 12.8-12.8h140.8c6.4 0 12.8 6.4 12.8 12.8s-6.4 12.8-12.8 12.8zM723.2 614.4h-57.6c-6.4 0-12.8-6.4-12.8-12.8s6.4-12.8 12.8-12.8h57.6c6.4 0 12.8 6.4 12.8 12.8s-6.4 12.8-12.8 12.8z" p-id="3826"></path><path d="M345.6 684.8h-57.6c-6.4 0-12.8-6.4-12.8-12.8s6.4-12.8 12.8-12.8h57.6c6.4 0 12.8 6.4 12.8 12.8 6.4 6.4 0 12.8-12.8 12.8zM518.4 684.8h-115.2c-6.4 0-12.8-6.4-12.8-12.8s6.4-12.8 12.8-12.8h115.2c6.4 0 12.8 6.4 12.8 12.8 6.4 6.4 0 12.8-12.8 12.8zM723.2 684.8h-140.8c-6.4 0-12.8-6.4-12.8-12.8s6.4-12.8 12.8-12.8h140.8c6.4 0 12.8 6.4 12.8 12.8s-6.4 12.8-12.8 12.8z" p-id="3827"></path><path d="M435.2 768h-140.8c-6.4 0-12.8-6.4-12.8-12.8s6.4-12.8 12.8-12.8h140.8c6.4 0 12.8 6.4 12.8 12.8s-6.4 12.8-12.8 12.8zM537.6 768h-44.8c-6.4 0-12.8-6.4-12.8-12.8s6.4-12.8 12.8-12.8h44.8c6.4 0 12.8 6.4 12.8 12.8s-6.4 12.8-12.8 12.8z" p-id="3828"></path></svg>