<?xml version="1.0" standalone="no"?><!DOCTYPE svg PUBLIC "-//W3C//DTD SVG 1.1//EN" "http://www.w3.org/Graphics/SVG/1.1/DTD/svg11.dtd"><svg class="icon" width="200px" height="200.00px" viewBox="0 0 1024 1024" version="1.1" xmlns="http://www.w3.org/2000/svg"><path d="M133.92 723.2l166.816 166.88-229.888 63.072 63.04-229.92z m577.024-198.72c2.944-1.984 5.888-1.504 8.832 1.44l228.096 228.096 1.472 1.76c1.952 2.944 1.472 5.888-1.472 8.832l-183.264 183.264-1.76 1.472c-2.944 1.952-5.888 1.472-8.832-1.472l-39.264-39.264-1.472-1.76c-1.952-2.944-1.472-5.888 1.472-8.832l128.96-128.96-44.288-44.288-125.056 125.056-1.76 1.472c-2.944 1.952-5.888 1.472-8.832-1.472l-39.52-39.552-1.472-1.76c-1.984-2.944-1.472-5.856 1.472-8.8l125.024-125.056-44.256-44.288-128.96 128.96-1.76 1.472c-2.944 1.92-5.888 1.472-8.832-1.472l-39.552-39.552-1.472-1.76c-1.92-2.944-1.472-5.888 1.472-8.832l183.264-183.264zM643.52 202.08l178.368 178.368-493.056 493.056-178.368-178.368L643.52 202.112zM261.12 74.656c2.944-1.952 5.888-1.472 8.832 1.472l228.096 228.096 1.472 1.76c1.92 2.944 1.472 5.888-1.472 8.832l-183.264 183.264-1.76 1.472c-2.944 1.92-5.888 1.472-8.832-1.472L264.96 458.816l-1.472-1.792c-1.952-2.912-1.472-5.856 1.472-8.8l128.96-128.96-44.288-44.288-125.056 125.056-1.76 1.472c-2.944 1.952-5.888 1.472-8.832-1.472l-39.552-39.552-1.44-1.76c-1.984-2.944-1.472-5.888 1.44-8.8L299.52 224.864 255.2 180.576l-128.96 128.96-1.728 1.472c-2.944 1.92-5.888 1.44-8.832-1.472L76.128 269.984l-1.472-1.76c-1.952-2.944-1.472-5.888 1.472-8.832l183.264-183.264z m493.696 16.128c25.088-25.088 64.16-26.72 87.264-3.648l94.72 94.752c23.104 23.104 21.472 62.176-3.616 87.264l-89.024 89.024-178.368-178.368z" /></svg>