<?xml version="1.0" standalone="no"?><!DOCTYPE svg PUBLIC "-//W3C//DTD SVG 1.1//EN" "http://www.w3.org/Graphics/SVG/1.1/DTD/svg11.dtd"><svg class="icon" width="200px" height="200.00px" viewBox="0 0 1024 1024" version="1.1" xmlns="http://www.w3.org/2000/svg"><path d="M325 922.59V65H165.72a60 60 0 0 0-60 60v774a60 60 0 0 0 60 60H325v-1.5c-0.16-11.64 0-23.28 0-34.91zM858.28 65h-64v339.63a16.93 16.93 0 0 1-26.69 13.84L668 348.27l-99.65 70.2a16.93 16.93 0 0 1-26.69-13.84V65H373v1.5c0.16 11.64 0 23.28 0 34.91V959h485.28a60 60 0 0 0 60-60V125a60 60 0 0 0-60-60z" /></svg>