<?xml version="1.0" standalone="no"?><!DOCTYPE svg PUBLIC "-//W3C//DTD SVG 1.1//EN" "http://www.w3.org/Graphics/SVG/1.1/DTD/svg11.dtd"><svg class="icon" width="32px" height="32.00px" viewBox="0 0 1024 1024" version="1.1" xmlns="http://www.w3.org/2000/svg"><path d="M882.944 931.904l-0.064-1.152 0.064 1.152zM367.616 205.952c-25.344 19.2-32.64 52.544-16.32 123.904 6.912 30.016-0.128 61.056-18.112 83.84 1.216 4.224 3.2 10.112 6.144 17.792 2.112 5.568 7.872 13.44 20.864 27.072 3.648 3.84 7.168 7.424 15.104 15.424 51.52 51.392 73.6 80.512 86.208 131.776a121.024 121.024 0 0 1-14.592 95.488c-22.592 36.032-61.696 58.24-108.48 68.288-6.016 1.408-12.16 2.56-18.24 3.648-95.616 16.832-149.504 43.264-170.24 109.696h723.904c-13.44-41.344-40.768-67.52-81.408-85.696-25.28-11.328-47.744-17.024-87.68-24.448a339.968 339.968 0 0 1-18.112-3.52c-47.36-10.24-86.464-32.384-109.12-68.48-17.664-28.16-22.144-59.968-14.912-94.016 11.712-49.856 34.624-81.28 80.768-127.488l5.888-5.824a1433.6 1433.6 0 0 0 9.728-9.728c16.512-16.64 23.68-25.984 26.24-32.768 2.816-7.616 4.736-13.504 5.888-17.728a98.56 98.56 0 0 1-18.432-83.328c12.16-52.544 6.08-90.112-15.488-117.888-38.08-48.512-123.328-70.4-206.464-70.4-16.32 0-31.744 0.96-44.992 2.496a96.256 96.256 0 0 1-38.144 61.888z m591.744 718.08a33.984 33.984 0 0 1-8.064 25.024 32.128 32.128 0 0 1-23.744 10.624H96.96a32.128 32.128 0 0 1-23.744-10.624 32.512 32.512 0 0 1-8.576-25.024c14.72-185.6 173.824-214.4 242.176-226.56a272 272 0 0 0 14.72-2.816c28.992-6.272 50.368-18.304 60.352-34.24a44.288 44.288 0 0 0 5.184-35.648c-9.92-40.512-38.4-68.928-65.984-96.384-22.336-22.656-43.712-43.392-53.632-69.888-17.6-45.312-16.64-70.4 2.368-89.152a22.784 22.784 0 0 0 6.656-22.144c-22.4-97.856-8.576-161.92 44.608-202.368a22.4 22.4 0 0 0 8.064-25.6 33.92 33.92 0 0 1 1.92-25.536c3.84-7.68 10.432-13.44 19.008-16.384 25.152-8.192 61.696-12.48 100.672-12.48 44.16 0 194.24 7.232 266.88 99.712 37.056 47.744 47.04 108.928 29.888 182.656-1.92 7.68 0.96 15.872 6.656 21.696 19.52 18.752 19.968 43.84 2.88 89.152-9.984 26.496-31.36 47.68-53.696 69.824-27.52 27.52-56.512 55.936-65.984 96.384a45.888 45.888 0 0 0 5.248 35.712c9.92 15.872 31.36 27.904 60.288 34.176 4.288 0.96 8.96 1.92 14.72 2.88 67.904 12.544 227.008 41.472 241.728 227.008z" fill="#bfbfbf" /></svg>