<?xml version="1.0" encoding="utf-8"?>
<!-- Generator: Adobe Illustrator 23.0.0, SVG Export Plug-In . SVG Version: 6.00 Build 0)  -->
<svg version="1.1" id="图层_1" xmlns="http://www.w3.org/2000/svg" xmlns:xlink="http://www.w3.org/1999/xlink" x="0px" y="0px"
	 viewBox="0 0 16 16" style="enable-background:new 0 0 16 16;" xml:space="preserve">
<style type="text/css">
	.st0{fill:#B3B3B3;}
</style>
<g>
	<path class="st0" d="M13.4,1C14.3,1,15,1.7,15,2.6v10.8c0,0.9-0.7,1.6-1.6,1.6H2.6C1.7,15,1,14.3,1,13.4V2.6C1,1.7,1.7,1,2.6,1
		H13.4 M13.4,0H2.6C1.2,0,0,1.2,0,2.6v10.8C0,14.8,1.2,16,2.6,16h10.8c1.4,0,2.6-1.2,2.6-2.6V2.6C16,1.2,14.8,0,13.4,0L13.4,0z"/>
</g>
</svg>
