<?xml version="1.0" standalone="no"?><!DOCTYPE svg PUBLIC "-//W3C//DTD SVG 1.1//EN" "http://www.w3.org/Graphics/SVG/1.1/DTD/svg11.dtd"><svg class="icon" width="32px" height="32.00px" viewBox="0 0 1024 1024" version="1.1" xmlns="http://www.w3.org/2000/svg"><path d="M767.744 373.952L448 708.8l-46.08-48.192 319.744-334.976 46.08 48.32zM302.272 459.52L448 612.288l-46.08 48.32-145.728-152.768 46.08-48.256z m580.672 555.648H141.056c-68.224 0-123.584-56.32-123.584-125.824V134.592c0-69.44 55.424-125.824 123.584-125.824h741.888c68.224 0 123.648 56.32 123.648 125.824v754.816c0 69.44-55.424 125.824-123.648 125.824z m61.824-880.64a62.464 62.464 0 0 0-61.824-62.912H141.056a62.464 62.464 0 0 0-61.824 62.912v754.816c0 34.688 27.776 62.912 61.824 62.912h741.888a62.464 62.464 0 0 0 61.824-62.912V134.592z" fill="#bfbfbf" /></svg>