<?xml version="1.0" standalone="no"?><!DOCTYPE svg PUBLIC "-//W3C//DTD SVG 1.1//EN" "http://www.w3.org/Graphics/SVG/1.1/DTD/svg11.dtd"><svg class="icon" width="32px" height="32.00px" viewBox="0 0 1024 1024" version="1.1" xmlns="http://www.w3.org/2000/svg"><path d="M512 0a512 512 0 1 0 512 512A512 512 0 0 0 512 0z m347.4432 810.496a45.8752 45.8752 0 0 1-34.0992 16.2816H197.0176a45.6704 45.6704 0 0 1-34.0992-16.2816 44.6464 44.6464 0 0 1-8.0896-37.376c30.72-155.8528 151.7568-274.2272 301.2608-298.496a186.88 186.88 0 1 1 104.7552 1.9456 403.1488 403.1488 0 0 1 95.6416 25.4976 303.9232 303.9232 0 0 1 32.4608 16.1792 372.1216 372.1216 0 0 1 180.224 254.8736 40.96 40.96 0 0 1-9.728 37.376z" fill="#bfbfbf" /></svg>