<?xml version="1.0" standalone="no"?><!DOCTYPE svg PUBLIC "-//W3C//DTD SVG 1.1//EN" "http://www.w3.org/Graphics/SVG/1.1/DTD/svg11.dtd"><svg t="1535607007257" class="icon" style="" viewBox="0 0 1024 1024" version="1.1" xmlns="http://www.w3.org/2000/svg" p-id="3730" xmlns:xlink="http://www.w3.org/1999/xlink" width="14" height="14"><defs><style type="text/css"></style></defs><path d="M511.104 576.896m-65.536 0a65.536 65.536 0 1 0 131.072 0 65.536 65.536 0 1 0-131.072 0Z" fill="" p-id="3731"></path><path d="M750.208 576.896m-65.536 0a65.536 65.536 0 1 0 131.072 0 65.536 65.536 0 1 0-131.072 0Z" fill="" p-id="3732"></path><path d="M315.328 294.144c23.744 0 44.416-19.264 44.416-43.136V55.04c0-23.808-20.672-43.136-44.416-43.136a43.136 43.136 0 0 0-43.136 43.136v196.032c0 23.872 19.328 43.136 43.136 43.136zM706.752 294.144c23.808 0 44.48-19.264 44.48-43.136V55.04c0-23.808-20.672-43.136-44.48-43.136a43.136 43.136 0 0 0-43.072 43.136v196.032c0 23.872 19.328 43.136 43.136 43.136z" fill="" p-id="3733"></path><path d="M271.616 576.896m-65.536 0a65.536 65.536 0 1 0 131.072 0 65.536 65.536 0 1 0-131.072 0Z" fill="" p-id="3734"></path><path d="M270.464 816.448m-65.536 0a65.536 65.536 0 1 0 131.072 0 65.536 65.536 0 1 0-131.072 0Z" fill="" p-id="3735"></path><path d="M511.104 816.448m-65.536 0a65.536 65.536 0 1 0 131.072 0 65.536 65.536 0 1 0-131.072 0Z" fill="" p-id="3736"></path><path d="M876.032 120.512h-53.12c-1.6-0.256-3.072-0.96-4.736-0.96a33.28 33.28 0 1 0 0 66.624c1.664 0 3.008-0.64 4.544-0.896h56.384c24.768 0 45.696 20.928 45.696 45.76v150.784H98.56V231.04c0-24.832 20.864-45.76 45.632-45.76h50.56c1.536 0.256 2.88 0.896 4.48 0.896a33.28 33.28 0 1 0 0-66.624c-1.6 0-3.008 0.64-4.608 0.96h-46.656A114.56 114.56 0 0 0 33.92 234.816v663.04c0 62.848 49.472 114.304 112.256 114.304h729.92a114.56 114.56 0 0 0 114.112-114.304V234.88a114.56 114.56 0 0 0-114.112-114.304z m48.768 780.736a46.272 46.272 0 0 1-45.696 45.696H144.192a46.272 46.272 0 0 1-45.632-45.696V446.72h826.24v454.528z" fill="" p-id="3737"></path><path d="M436.864 186.24c0.96 0 1.792-0.512 2.752-0.64h146.56c0.896 0.128 1.728 0.64 2.688 0.64s1.792-0.512 2.752-0.64h3.52v-0.64c15.36-3.072 27.072-15.872 27.072-32.064s-11.776-29.056-27.072-32.064v-0.32h-1.6c-1.6-0.256-3.008-0.96-4.672-0.96s-3.072 0.64-4.672 0.96H441.536c-1.6-0.256-3.008-0.96-4.672-0.96a33.28 33.28 0 0 0 0 66.624z" fill="" p-id="3738"></path></svg>