<?xml version="1.0" standalone="no"?><!DOCTYPE svg PUBLIC "-//W3C//DTD SVG 1.1//EN" "http://www.w3.org/Graphics/SVG/1.1/DTD/svg11.dtd"><svg class="icon" width="200px" height="200.00px" viewBox="0 0 1024 1024" version="1.1" xmlns="http://www.w3.org/2000/svg"><path d="M422.4 520.533333c138.666667 0 247.466667-108.8 247.466667-251.733333C669.866667 130.133333 556.8 17.066667 422.4 17.066667 283.733333 17.066667 170.666667 132.266667 170.666667 268.8c0 142.933333 113.066667 251.733333 251.733333 251.733333zM667.733333 627.2c-46.933333-34.133333-108.8-49.066667-166.4-49.066667H356.266667c-57.6 0-119.466667 14.933333-166.4 46.933334-85.333333 57.6-142.933333 155.733333-142.933334 266.666666v19.2c0 93.866667 136.533333 96 311.466667 96H503.466667c174.933333 0 311.466667 0 311.466666-96v-19.2c0-110.933333-59.733333-209.066667-147.2-264.533333z"  /><path d="M866.133333 567.466667c-23.466667-14.933333-64-42.666667-100.266666-46.933334 59.733333-29.866667 106.666667-89.6 106.666666-166.4 0-104.533333-74.666667-194.133333-174.933333-194.133333 0 0 6.4 0 0 0 38.4 40.533333 49.066667 106.666667 40.533333 164.266667-12.8 93.866667-68.266667 164.266667-140.8 200.533333 44.8 4.266667 93.866667 36.266667 130.133334 61.866667 81.066667 51.2 134.4 142.933333 134.4 245.333333v27.733333c72.533333-4.266667 119.466667-21.333333 119.466666-68.266666v-14.933334c6.4-76.8-72.533333-183.466667-115.2-209.066666z"  /></svg>