<?xml version="1.0" encoding="UTF-8"?>
<svg width="19px" height="17px" viewBox="0 0 19 17" version="1.1" xmlns="http://www.w3.org/2000/svg" xmlns:xlink="http://www.w3.org/1999/xlink">
    <!-- Generator: Sketch 63.1 (92452) - https://sketch.com -->
    <title>tupian</title>
    <desc>Created with Sketch.</desc>
    <g id="页面-1" stroke="none" stroke-width="1" fill-rule="evenodd">
        <g id="0规范" transform="translate(-678.000000, -644.000000)"  fill-rule="nonzero">
            <g id="文字框" transform="translate(599.000000, 632.000000)">
                <g id="输入按钮" transform="translate(14.000000, 11.000000)">
                    <g id="tupian" transform="translate(65.000000, 1.000000)">
                        <path d="M1.796875,1 L17.203125,1 C17.6458333,1 18,1.33333333 18,1.75 L18,7.66666667 C17.203125,7.08333333 15.6979167,6.16666667 14.546875,6.16666667 C12.8645833,6.16666667 11.359375,9.83333333 9.5,9.83333333 C8.08333333,9.75 6.13541667,8.25 3.921875,8.5 C3.03645833,8.66666667 1.796875,10 1,11 L1,1.75 C1,1.33333333 1.35416667,1 1.796875,1 Z M5.5,7 C4.78571429,7 4.16071429,6.73214286 3.71428571,6.28571429 C3.26785714,5.83928571 3,5.125 3,4.5 C3,3.875 3.26785714,3.16071429 3.71428571,2.71428571 C4.16071429,2.26785714 4.78571429,2 5.5,2 C6.125,2 6.75,2.26785714 7.28571429,2.71428571 C7.73214286,3.16071429 8,3.875 8,4.5 C8,5.125 7.73214286,5.83928571 7.28571429,6.28571429 C6.75,6.73214286 6.125,7 5.5,7 Z M17.4454545,0 L1.55454545,0 C0.690909091,0 0,0.68 0,1.53 L0,15.47 C0,16.32 0.690909091,17 1.55454545,17 L17.4454545,17 C18.3090909,17 19,16.32 19,15.47 L19,1.53 C19,0.68 18.3090909,0 17.4454545,0 Z" id="形状"></path>
                    </g>
                </g>
            </g>
        </g>
    </g>
</svg>