<?xml version="1.0" encoding="UTF-8"?>
<svg width="19px" height="13px" viewBox="0 0 19 13" version="1.1" xmlns="http://www.w3.org/2000/svg" xmlns:xlink="http://www.w3.org/1999/xlink">
    <!-- Generator: Sketch 63.1 (92452) - https://sketch.com -->
    <title>video</title>
    <desc>Created with Sketch.</desc>
    <g id="页面-1" stroke="none" stroke-width="1"  fill-rule="evenodd">
        <g id="0规范" transform="translate(-740.000000, -646.000000)"  fill-rule="nonzero">
            <g id="文字框" transform="translate(599.000000, 632.000000)">
                <g id="输入按钮" transform="translate(14.000000, 11.000000)">
                    <g id="video" transform="translate(127.000000, 3.000000)">
                        <path d="M18.6344234,0.76526769 L17.9037557,0.76526769 C17.7015016,0.76526769 17.5381791,0.936054719 17.5381791,1.14767215 L17.5381791,1.06555258 L13.884798,4.88901329 L13.884798,1.52957614 C13.884798,0.685024895 13.2300731,0 12.422956,0 L1.46184199,0 C0.654724925,0 0,0.684566127 0,1.52957614 L0,11.4708826 C0,12.3149543 0.6542396,13 1.46184199,13 L12.422956,13 C13.2300731,13 13.884798,12.3149751 13.884798,11.4708826 L13.884798,8.11096585 L17.5381791,11.9339678 L17.5381791,11.8527866 C17.5381791,12.0634448 17.7015016,12.2347115 17.9037557,12.2347115 L18.6344234,12.2347115 C18.8361922,12.2347115 19,12.0634448 19,11.8527866 L19,1.14763044 C19,0.936013012 18.8362133,0.765225984 18.6344234,0.765225984 L18.6344234,0.76526769 Z M12.4229349,6.41858943 L12.3445865,6.50022938 L12.4229349,6.58186934 L12.4229349,11.4708826 L1.46182089,11.4708826 L1.46182089,1.52957614 L12.4229349,1.52957614 L12.4229349,6.41858943 Z M17.5386433,9.77097824 L14.4122622,6.50022938 L17.5386433,3.22900091 L17.5386433,9.77097824 Z" id="形状"></path>
                    </g>
                </g>
            </g>
        </g>
    </g>
</svg>