<?xml version="1.0" standalone="no"?><!DOCTYPE svg PUBLIC "-//W3C//DTD SVG 1.1//EN" "http://www.w3.org/Graphics/SVG/1.1/DTD/svg11.dtd"><svg class="icon" width="200px" height="158.27px" viewBox="0 0 1294 1024" version="1.1" xmlns="http://www.w3.org/2000/svg"><path d="M701.276807 562.77303 701.276807 988.765895C701.276807 1004.335589 688.655074 1016.957321 673.085381 1016.957321 657.515682 1016.957321 644.893949 1004.335589 644.893949 988.765895L644.893949 562.432528 538.194282 669.132196C526.529781 680.796699 507.617887 680.796699 495.953386 669.132196 484.288884 657.467699 484.288884 638.555804 495.953385 626.891302L651.79468 471.050004C663.459177 459.385502 682.371072 459.385502 694.035575 471.050003L777.324145 554.338573 845.665264 622.679692C857.329766 634.344195 857.329766 653.256084 845.665264 664.920587 834.000761 676.585089 815.088866 676.585089 803.424369 664.920587L735.083251 596.579474 701.276807 562.77303ZM782.07716 728.426372 782.077154 936.923928 896.941509 936.923928 975.758762 936.923928C1149.759871 936.923928 1265.569081 793.094613 1265.569081 647.57566 1265.569081 521.259946 1183.452516 398.596738 1064.815788 372.9375 1070.621712 345.493421 1070.621712 338.893297 1070.621712 313.993421 1070.621712 145.605263 923.44659 27.375 777.927631 27.375 645.072961 27.375 514.788493 116.842948 496.667763 244.694079 455.4375 229.703947 430.774702 225.572368 382.916658 225.572368 201.017962 225.572368 26.726974 379.638158 26.726974 583.368418 26.726974 787.098683 201.017959 936.923928 382.916655 936.923928L448.884491 936.923928 564.093596 936.923928 564.093602 737.247351C523.203043 765.923263 466.411578 761.994477 429.87808 725.460976 388.942381 684.525282 388.94238 618.155396 429.878077 577.219697L602.258712 405.960528C643.194411 365.024828 709.564292 365.024827 750.499991 405.960527L918.124905 569.713351C959.060604 610.64905 959.060604 677.018931 918.124905 717.95463 881.042502 755.037038 823.088807 758.527617 782.07716 728.426372Z" /></svg>