<?xml version="1.0" standalone="no"?><!DOCTYPE svg PUBLIC "-//W3C//DTD SVG 1.1//EN" "http://www.w3.org/Graphics/SVG/1.1/DTD/svg11.dtd"><svg class="icon" width="200px" height="200.00px" viewBox="0 0 1024 1024" version="1.1" xmlns="http://www.w3.org/2000/svg"><path d="M810.7 192h-85.3c0-23.5-19.2-42.7-42.7-42.7-23.5 0-42.7 19.2-42.7 42.7H384c0-23.5-19.2-42.7-42.7-42.7-23.5 0-42.7 19.2-42.7 42.7h-85.3c-46.9 0-85.3 38.4-85.3 85.3v512c0 46.9 38.4 85.3 85.3 85.3h597.3c46.9 0 85.3-38.4 85.3-85.3v-512c0.1-46.9-38.3-85.3-85.2-85.3z m-128 469.3h-128v128c0 23.5-19.2 42.7-42.7 42.7-23.5 0-42.7-19.2-42.7-42.7v-128h-128c-23.5 0-42.7-19.2-42.7-42.7 0-23.5 19.2-42.7 42.7-42.7h128V448c0-23.5 19.2-42.7 42.7-42.7 23.5 0 42.7 19.2 42.7 42.7v128h128c23.5 0 42.7 19.2 42.7 42.7-0.1 23.4-19.3 42.6-42.7 42.6zM768 362.7H256c-23.5 0-42.7-19.2-42.7-42.7s19.2-42.7 42.7-42.7h42.7c0 23.5 19.2 42.7 42.7 42.7 23.5 0 42.7-19.2 42.7-42.7h256c0 23.5 19.2 42.7 42.7 42.7 23.5 0 42.7-19.2 42.7-42.7H768c23.5 0 42.7 19.2 42.7 42.7s-19.2 42.7-42.7 42.7z" /></svg>