<?xml version="1.0" standalone="no"?><!DOCTYPE svg PUBLIC "-//W3C//DTD SVG 1.1//EN" "http://www.w3.org/Graphics/SVG/1.1/DTD/svg11.dtd"><svg class="icon" width="200px" height="200.00px" viewBox="0 0 1024 1024" version="1.1" xmlns="http://www.w3.org/2000/svg"><path d="M546.453333 128a68.906667 68.906667 0 0 1 68.928 68.906667v65.493333c0 1.92 1.536 3.456 3.456 3.456h272.234667A68.906667 68.906667 0 0 1 960 334.762667v482.474666a68.906667 68.906667 0 0 1-68.906667 68.906667H132.906667A68.906667 68.906667 0 0 1 64 817.237333V196.906667A68.906667 68.906667 0 0 1 132.906667 128h413.546666z m30.208 482.453333H240.576a4.266667 4.266667 0 0 0-4.266667 4.266667v60.394667c0 2.346667 1.92 4.266667 4.266667 4.266666H576.64a4.266667 4.266667 0 0 0 4.266667-4.266666v-60.373334a4.266667 4.266667 0 0 0-4.266667-4.266666z m-137.856-137.834666h-198.229333a4.266667 4.266667 0 0 0-4.266667 4.266666v60.373334c0 2.368 1.92 4.266667 4.266667 4.266666h198.229333a4.266667 4.266667 0 0 0 4.266667-4.266666v-60.373334a4.266667 4.266667 0 0 0-4.266667-4.266666z" /></svg>