<?xml version="1.0" standalone="no"?><!DOCTYPE svg PUBLIC "-//W3C//DTD SVG 1.1//EN" "http://www.w3.org/Graphics/SVG/1.1/DTD/svg11.dtd"><svg t="1610694335611" class="icon" viewBox="0 0 1024 1024" version="1.1" xmlns="http://www.w3.org/2000/svg" p-id="2556" xmlns:xlink="http://www.w3.org/1999/xlink" width="48" height="48"><defs><style type="text/css"></style></defs><path d="M75.3664 0h744.493511c25.042489 1.206044 48.617244 17.214578 58.720711 40.186311 4.152889 9.124978 6.155378 19.160178 6.052978 29.172622-0.022756 160.233244 0 320.455111-0.022756 480.676978-41.107911-17.157689-86.584889-23.529244-130.844444-18.602667-37.751467 4.130133-74.5472 16.600178-107.030756 36.272356-33.325511 20.115911-62.122667 47.672889-83.6608 80.088178-21.265067 31.891911-35.419022 68.5056-41.096533 106.416355-6.974578 46.1824-1.592889 94.219378 15.803733 137.580089 20.923733 52.736 59.460267 98.133333 107.884089 127.647289-188.859733 0.022756-377.719467 0.011378-566.5792 0.011378-19.524267 0.113778-38.832356-8.704-51.541333-23.517867C17.567289 984.610133 11.810133 969.898667 10.808889 954.88V64.728178c0.989867-16.156444 7.623111-31.9488 18.909867-43.599645C41.528889 8.590222 58.220089 1.080889 75.3664 0m99.510044 173.272178c-7.725511 1.4336-14.461156 7.190756-17.066666 14.597689-2.730667 7.3728-1.251556 16.099556 3.777422 22.141155 4.460089 5.540978 11.582578 8.612978 18.648178 8.362667H701.553778c8.192 0.329956 16.395378-3.970844 20.548266-11.081956 4.699022-7.68 4.175644-18.136178-1.297066-25.2928-4.221156-5.688889-11.172978-9.204622-18.261334-9.124977-174.08-0.034133-348.148622 0.011378-522.217244-0.022756-1.831822 0.034133-3.652267 0.1024-5.449956 0.420978m-1.9456 191.601778c-6.360178 1.797689-11.810133 6.508089-14.483911 12.561066-3.527111 7.657244-2.275556 17.237333 3.151645 23.699911 4.460089 5.586489 11.639467 8.635733 18.7392 8.385423 107.713422 0 215.415467 0.011378 323.117511-0.011378 7.384178 0.238933 14.791111-3.208533 19.160178-9.204622 5.5296-7.236267 5.984711-17.863111 1.080889-25.531734-3.970844-6.542222-11.446044-10.786133-19.114667-10.752-108.452978-0.022756-216.905956-0.011378-325.347556 0-2.127644 0.034133-4.266667 0.250311-6.303289 0.853334m-0.022755 191.146666c-10.786133 2.889956-18.215822 14.506667-16.156445 25.520356 1.513244 10.706489 11.582578 19.273956 22.391467 19.091911 61.110044 0.068267 122.220089 0.045511 183.330133 0.011378 11.844267 0.420978 22.721422-9.750756 23.028623-21.6064 0.637156-9.489067-5.438578-18.898489-14.301867-22.289067-4.573867-1.968356-9.648356-1.581511-14.506667-1.592889-56.911644 0.011378-113.823289 0-170.734933 0-4.357689 0.056889-8.817778-0.364089-13.050311 0.864711m0.989867 190.884978c-6.769778 1.592889-12.663467 6.473956-15.4624 12.845511-3.515733 7.645867-2.264178 17.2032 3.151644 23.6544 4.437333 5.563733 11.5712 8.635733 18.659556 8.408178 45.909333 0.011378 91.830044 0.011378 137.750755 0 7.088356 0.227556 14.244978-2.855822 18.670933-8.442311 5.563733-6.667378 6.690133-16.622933 2.776178-24.348445-3.652267-7.634489-11.855644-12.822756-20.320711-12.708977-44.7488-0.022756-89.4976 0-134.235022-0.011378-3.663644 0.011378-7.395556-0.227556-10.990933 0.603022z" p-id="2557"></path><path d="M756.6336 566.340267c44.999111-5.256533 91.488711 3.003733 131.731911 23.8592 36.431644 18.796089 67.697778 47.502222 89.440711 82.272711 19.319467 30.708622 31.1296 66.104889 34.110578 102.274844 4.278044 49.368178-7.918933 100.033422-34.565689 141.846756-23.995733 38.0928-59.4944 68.790044-100.602311 87.1424-53.213867 23.870578-115.632356 26.271289-170.507378 6.485333-34.2016-12.117333-65.3312-32.688356-90.168889-59.130311-25.782044-27.420444-44.691911-61.269333-54.351644-97.666844-11.480178-42.996622-10.160356-89.349689 3.913955-131.584 12.014933-36.283733 33.325511-69.449956 61.371734-95.4368 35.305244-33.1776 81.476267-54.567822 129.627022-60.063289m-21.128533 113.914311c-6.485333 3.561244-10.513067 10.934044-10.171734 18.318222 0.011378 43.235556-0.011378 86.471111 0 129.706667 0.056889 5.472711-0.773689 11.036444 0.4096 16.452266 2.002489 8.487822 10.0352 15.166578 18.807467 15.314489 47.854933-0.284444 95.721244 0.011378 143.576178-0.159289 9.728-0.022756 18.568533-8.214756 19.285333-17.92 0.3072-5.484089 0.648533-11.3664-1.911467-16.418133-3.1744-6.564978-10.194489-11.093333-17.5104-11.104711-39.037156-0.045511-78.085689-0.011378-117.134222-0.022756-0.045511-39.003022 0.034133-78.006044-0.034133-117.009066 0.1024-9.511822-7.554844-18.306844-16.987022-19.478756-6.132622-0.500622-12.811378-0.887467-18.3296 2.321067z" p-id="2558"></path></svg>