<?xml version="1.0" encoding="UTF-8"?>
<svg width="15px" height="18px" viewBox="0 0 15 18" version="1.1" xmlns="http://www.w3.org/2000/svg" xmlns:xlink="http://www.w3.org/1999/xlink">
    <!-- Generator: Sketch 63.1 (92452) - https://sketch.com -->
    <title>yuyin-2</title>
    <desc>Created with Sketch.</desc>
    <g id="页面-1" stroke="none" stroke-width="1"  fill-rule="evenodd">
        <g id="0规范" transform="translate(-711.000000, -644.000000)" fill-rule="nonzero">
            <g id="文字框" transform="translate(599.000000, 632.000000)">
                <g id="输入按钮" transform="translate(14.000000, 11.000000)">
                    <g id="yuyin-2" transform="translate(98.000000, 1.000000)">
                        <path d="M7.5,13 C9.98422467,12.9977223 11.9974508,11.1989446 12,8.97933885 L12,4.02066116 C12,1.80011132 9.98528137,0 7.5,0 C5.01471863,0 3,1.80011132 3,4.02066116 L3,8.97933885 C3.00254923,11.1989446 5.01577531,12.9977223 7.5,13 Z M4.60483042,8.97933885 L4.60483042,4.02066116 C4.69158216,2.65099398 5.959965,1.58003899 7.49537513,1.58003899 C9.03078526,1.58003899 10.2991681,2.65099398 10.3859198,4.02066116 L10.3859198,8.97933885 C10.2991681,10.349006 9.03078526,11.419961 7.49537513,11.419961 C5.959965,11.419961 4.69158216,10.349006 4.60483042,8.97933885 Z" id="形状"></path>
                        <path d="M12.8084272,13.4363517 C14.2111869,12.167003 14.9985179,10.4547128 15,8.67011155 L15,5.73999344 C15,5.33130635 14.629514,5 14.1724964,5 C13.7154788,5 13.3449929,5.33130635 13.3449929,5.73999344 L13.3449929,8.67011155 C13.3634895,11.5740402 10.7473299,13.9421711 7.5,13.960958 C4.25323039,13.9409989 1.63783539,11.5735602 1.65501464,8.67011155 L1.65501464,5.73999344 C1.65501464,5.33130635 1.28452868,5 0.827511079,5 C0.370493481,5 0,5.33130635 0,5.73999344 L0,8.67011155 C-0.00141433904,9.56878138 0.198884707,10.4585652 0.589037436,11.2867454 C0.96506114,12.0886156 1.50991912,12.8183869 2.19396509,13.4363517 C3.3931817,14.5286005 4.97631439,15.2183842 6.67726968,15.3897638 L6.67726968,16.5200131 L3.20986284,16.5200131 C2.75284524,16.5200131 2.38235927,16.8513195 2.38235927,17.2600066 C2.38235927,17.6686937 2.75284524,18 3.20986284,18 L11.7949142,18 C12.2519318,18 12.6224177,17.6686937 12.6224177,17.2600066 C12.6224177,16.8513195 12.2519318,16.5200131 11.7949142,16.5200131 L8.32750731,16.5200131 L8.32750731,15.3897638 C10.0273423,15.2170668 11.609252,14.5274491 12.8084272,13.4363517 Z" id="路径"></path>
                    </g>
                </g>
            </g>
        </g>
    </g>
</svg>